<?xml version="1.0" encoding="utf-8"?>
<svg viewBox="3056.3623 381.9724 192.7275 215.4518" xmlns="http://www.w3.org/2000/svg">
  <path fill="#EEF1F1" opacity="1.000000" stroke="none" d=" M3155.559326,404.371277 C3156.915039,404.760040 3158.301514,405.054840 3158.849609,405.895966 C3160.300049,408.120544 3161.387207,410.581726 3162.856689,413.405853 C3164.636230,411.963379 3165.504395,410.858673 3166.617676,410.486542 C3167.477295,410.199280 3168.643799,410.830872 3169.673828,411.053955 C3169.455322,411.942780 3169.505371,413.363434 3168.973633,413.631927 C3166.030762,415.117889 3167.275879,417.035370 3168.020264,419.107330 C3171.063232,427.577240 3174.920410,435.692719 3180.859863,442.440186 C3184.058105,446.073914 3188.430176,448.710266 3192.402344,451.619873 C3202.532715,459.040588 3209.663574,469.231018 3216.796143,479.183350 C3220.488525,484.335266 3220.961914,491.214813 3221.981689,497.857880 C3223.298584,506.435333 3219.905518,515.498413 3224.682373,523.757507 C3225.434814,525.058411 3223.149658,528.133789 3222.216797,530.366760 C3222.114502,530.611511 3221.513428,530.641174 3221.399170,530.888550 C3218.648193,536.853088 3215.932129,542.833679 3212.673828,549.988159 C3208.384033,551.660156 3207.438721,555.079590 3212.607422,560.356018 C3207.522705,562.294983 3202.937256,564.043518 3197.827148,565.992188 C3200.643066,570.183228 3199.937988,572.301270 3195.483887,574.011536 C3192.099609,575.310791 3189.616699,578.859558 3185.311279,578.233398 C3184.966553,578.183289 3184.324951,578.678101 3184.167969,579.061584 C3181.289307,586.088806 3173.471680,585.143799 3168.361572,588.705566 C3161.036865,593.810791 3151.506348,592.481079 3143.070068,594.110046 C3136.463867,595.385681 3128.924072,591.836060 3121.801270,590.418030 C3120.180664,590.095398 3118.570068,589.722412 3116.795166,589.338013 C3115.439941,591.788757 3114.121094,594.173523 3112.323486,597.424194 C3109.794189,596.463562 3106.928955,595.375366 3103.690430,594.145386 C3106.182373,591.273254 3107.942139,589.245178 3110.426758,586.381653 C3097.601807,584.835510 3089.578613,575.986511 3078.965088,570.899902 C3079.959717,572.896240 3080.954346,574.892578 3082.327393,577.648315 C3075.439697,578.177734 3076.430908,570.789001 3071.000977,569.706421 C3073.400146,568.328369 3074.540283,567.673523 3076.398926,566.606018 C3074.409912,565.653503 3073.148438,565.049377 3071.581299,564.298889 C3071.647461,562.964661 3071.724854,561.399475 3071.806152,559.757202 C3069.154297,559.390686 3066.697266,559.051025 3064.240234,558.711365 C3064.694336,558.395020 3065.148438,558.078613 3065.602295,557.762207 C3065.021729,554.170898 3064.442383,550.579346 3063.859619,546.988342 C3063.274658,543.382263 3060.927979,539.840515 3063.668213,536.096558 C3064.005859,535.635010 3063.275146,534.391663 3062.910400,533.027405 C3062.042725,533.620789 3061.619629,534.070984 3061.106689,534.227783 C3059.967529,534.575989 3058.783447,534.777161 3057.617676,535.038208 C3057.500488,533.776672 3056.848633,532.223022 3057.352539,531.300781 C3060.769531,525.047546 3060.668457,522.391357 3057.315918,519.238708 C3056.956787,516.061890 3056.687256,513.861206 3056.469482,511.655426 C3056.391357,510.861572 3056.280518,510.018982 3056.455566,509.261261 C3057.133057,506.328339 3058.296387,503.458893 3058.597168,500.496582 C3059.620850,490.415924 3065.066895,481.994202 3068.595459,472.858643 C3069.611816,470.226929 3070.437256,467.386200 3072.048584,465.143127 C3078.400146,456.301575 3084.760986,447.466797 3094.354248,441.591705 C3098.378906,439.126923 3101.905518,435.848999 3105.118408,433.359314 C3106.987305,430.069336 3108.644531,427.037933 3110.425781,424.081207 C3110.996338,423.134338 3112.587891,422.335846 3112.532471,421.553253 C3112.126953,415.839508 3117.835449,414.112274 3119.918457,410.032990 C3120.410156,409.069763 3122.909424,408.424377 3124.238525,408.724792 C3128.777100,409.750732 3129.995850,407.501404 3129.982178,403.673309 C3129.976318,402.015930 3129.988770,400.327942 3129.695801,398.707520 C3128.458984,391.864502 3133.463135,387.485138 3140.095947,389.534546 C3142.511719,390.280975 3145.076172,390.546265 3148.168945,391.146820 C3149.755615,394.483978 3153.175293,397.614075 3151.411377,403.152100 C3150.180420,407.017975 3153.246338,405.761169 3155.559326,404.371277 M3138.738770,416.790558 C3138.843262,417.205566 3138.947754,417.620544 3138.170654,418.134979 C3126.494629,417.909698 3121.145752,423.122406 3121.148193,434.725189 C3121.149414,440.342072 3118.669434,443.288086 3113.096924,445.181122 C3109.186768,446.509430 3105.215576,447.975159 3101.696533,450.087616 C3068.153809,470.223297 3056.000977,513.526062 3076.286377,548.445862 C3095.960205,582.312134 3136.867432,593.000305 3170.216064,578.586914 C3185.237793,572.094421 3196.621582,561.497559 3204.734375,547.301025 C3216.044189,527.509155 3219.125977,506.770630 3210.016113,485.533661 C3201.394287,465.434296 3185.852051,452.007538 3165.412354,444.436707 C3162.001465,443.173279 3160.825439,441.639832 3160.782959,438.042480 C3160.619385,424.228943 3156.797363,419.942261 3143.608887,417.989899 C3143.444092,417.965485 3143.281006,417.932068 3142.978760,417.072144 C3142.983398,411.053192 3142.988037,405.034210 3142.868164,398.272766 C3141.295654,397.974731 3139.723145,397.676697 3137.359863,397.304657 C3133.814453,401.127350 3138.206055,404.394806 3138.088379,408.827759 C3138.334229,411.269623 3138.580078,413.711487 3138.738770,416.790558 M3172.809814,435.541901 C3172.090820,435.559357 3171.371582,435.576782 3170.652588,435.594116 C3171.162598,436.232025 3171.672607,436.869934 3172.182617,437.507874 C3172.544922,436.993805 3172.907227,436.479736 3172.809814,435.541901 M3208.520508,560.275024 C3208.270508,560.011902 3208.022949,559.746216 3207.757568,559.499512 C3207.750732,559.493225 3207.552490,559.692505 3207.443359,559.795776 C3207.693848,560.059082 3207.944092,560.322388 3208.520508,560.275024 z" transform="matrix(1, 0, 0, 1, -4.547473508864641e-13, 0)"/>
  <path fill="#111713" opacity="1.000000" stroke="none" d=" M3143.116943,417.902832 C3143.281006,417.932068 3143.444092,417.965485 3143.608887,417.989899 C3156.797363,419.942261 3160.619385,424.228943 3160.782959,438.042480 C3160.825439,441.639832 3162.001465,443.173279 3165.412354,444.436707 C3185.852051,452.007538 3201.394287,465.434296 3210.016113,485.533661 C3219.125977,506.770630 3216.044189,527.509155 3204.734375,547.301025 C3196.621582,561.497559 3185.237793,572.094421 3170.216064,578.586914 C3136.867432,593.000305 3095.960205,582.312134 3076.286377,548.445862 C3056.000977,513.526062 3068.153809,470.223297 3101.696533,450.087616 C3105.215576,447.975159 3109.186768,446.509430 3113.096924,445.181122 C3118.669434,443.288086 3121.149414,440.342072 3121.148193,434.725189 C3121.145752,423.122406 3126.494629,417.909698 3139.013672,418.172607 C3140.943604,418.107788 3142.030273,418.005310 3143.116943,417.902832 M3192.823730,468.368195 C3191.897705,467.547119 3190.971680,466.726044 3189.744141,465.304016 C3185.067871,461.901215 3180.666504,458.004700 3175.651367,455.209473 C3167.782959,450.823883 3159.409912,447.577698 3149.240723,448.910461 C3138.890625,449.654938 3128.531006,451.032562 3118.194580,450.875977 C3113.047852,450.798035 3108.491211,451.420776 3104.512451,454.121857 C3075.585449,473.759491 3066.234863,497.627045 3076.598877,534.375000 C3079.201904,543.603516 3086.379150,551.571167 3091.660156,559.988953 C3092.644043,561.557251 3094.611572,562.508362 3096.487549,564.279175 C3097.722656,565.147217 3098.957764,566.015320 3100.424072,567.419434 C3100.963135,567.584473 3101.502441,567.749512 3102.492188,568.441467 C3126.065430,581.834351 3149.883789,582.699707 3174.579346,569.736328 C3175.383545,569.146423 3176.187744,568.556580 3177.464111,567.889587 C3177.786865,567.777588 3178.012207,567.563354 3178.820557,567.105530 C3197.103027,553.123535 3208.164795,535.012390 3209.042725,511.728180 C3209.494385,499.748047 3207.806641,487.908722 3199.793457,477.372528 C3197.531982,474.570862 3195.270508,471.769196 3192.823730,468.368195 M3132.677734,436.152954 C3132.465088,433.288208 3132.252197,430.423492 3132.018555,427.277649 C3127.656738,429.176483 3126.658447,430.964081 3127.235352,436.421539 C3127.401123,437.989838 3128.974365,439.409363 3129.901855,440.897003 C3130.810791,439.596985 3131.719727,438.296997 3132.677734,436.152954 M3148.269531,427.284210 C3145.408203,428.981720 3143.720215,438.443634 3146.173828,440.171478 C3146.862793,440.656616 3149.672363,439.663544 3149.669678,439.364685 C3149.635254,435.439087 3149.270996,431.516418 3148.269531,427.284210 M3140.760010,430.107239 C3140.229736,427.968689 3138.863525,426.638092 3137.854492,429.372589 C3136.451416,433.175781 3136.691162,437.238586 3138.572754,440.861206 C3139.202637,440.851074 3139.832520,440.840973 3140.462646,440.830872 C3140.581787,437.542725 3140.701172,434.254578 3140.760010,430.107239 z" transform="matrix(1, 0, 0, 1, -4.547473508864641e-13, 0)"/>
  <path fill="#0B140C" opacity="1.000000" stroke="none" d=" M3138.150635,397.378632 C3139.723145,397.676697 3141.295654,397.974731 3142.731201,398.996948 C3142.432861,403.774139 3142.553711,407.868469 3141.968750,411.859314 C3141.741455,413.410919 3139.920898,414.728943 3138.825928,416.153351 C3138.580078,413.711487 3138.334229,411.269623 3138.325195,408.103577 C3138.425049,404.045837 3138.287842,400.712219 3138.150635,397.378632 z" transform="matrix(1, 0, 0, 1, -4.547473508864641e-13, 0)"/>
  <path fill="#576C60" opacity="1.000000" stroke="none" d=" M3138.782227,416.471954 C3139.920898,414.728943 3141.741455,413.410919 3141.968750,411.859314 C3142.553711,407.868469 3142.432861,403.774139 3142.793457,399.368195 C3142.988037,405.034210 3142.983398,411.053192 3143.047852,417.487488 C3142.030273,418.005310 3140.943604,418.107788 3139.454590,418.122894 C3138.947754,417.620544 3138.843262,417.205566 3138.782227,416.471954 z" transform="matrix(1, 0, 0, 1, -4.547473508864641e-13, 0)"/>
  <path fill="#576C60" opacity="1.000000" stroke="none" d=" M3137.755371,397.341644 C3138.287842,400.712219 3138.425049,404.045837 3138.334473,407.677917 C3138.206055,404.394806 3133.814453,401.127350 3137.755371,397.341644 z" transform="matrix(1, 0, 0, 1, -4.547473508864641e-13, 0)"/>
  <path fill="#EAEAED" opacity="1.000000" stroke="none" d=" M3173.039551,435.753784 C3172.907227,436.479736 3172.544922,436.993805 3172.182617,437.507874 C3171.672607,436.869934 3171.162598,436.232025 3170.652588,435.594177 C3171.371582,435.576782 3172.090820,435.559357 3173.039551,435.753784 z" transform="matrix(1, 0, 0, 1, -4.547473508864641e-13, 0)"/>
  <path fill="#EAEAED" opacity="1.000000" stroke="none" d=" M3208.357422,560.430359 C3207.944092,560.322388 3207.693848,560.059082 3207.443359,559.795837 C3207.552490,559.692505 3207.750732,559.493225 3207.757568,559.499512 C3208.022949,559.746216 3208.270508,560.011902 3208.357422,560.430359 z" transform="matrix(1, 0, 0, 1, -4.547473508864641e-13, 0)"/>
  <path opacity="1.000000" stroke="none" d=" M3096.125244,563.744324 C3094.611572,562.508362 3092.644043,561.557251 3091.660156,559.988953 C3086.379150,551.571167 3079.201904,543.603516 3076.598877,534.375000 C3066.234863,497.627045 3075.585449,473.759491 3104.512451,454.121857 C3108.491211,451.420776 3113.047852,450.798035 3118.194580,450.875977 C3128.531006,451.032562 3138.890625,449.654938 3149.583496,449.369873 C3149.623779,450.478851 3149.321045,451.128418 3149.353271,451.059387 C3152.701172,452.045807 3155.882080,452.983032 3158.606934,453.945496 C3147.717773,454.645691 3137.281738,455.277771 3126.855225,456.035248 C3124.988281,456.170868 3123.130615,457.275085 3121.316895,457.162262 C3112.768555,456.630371 3104.692383,456.991608 3098.953125,464.797302 C3097.404785,466.903320 3095.167969,468.493469 3093.318359,470.389862 C3087.802490,476.044922 3082.070068,482.036011 3080.553955,489.793732 C3078.718018,499.189270 3078.037109,508.971466 3078.277100,518.550781 C3078.418701,524.202087 3080.884521,529.961731 3083.113770,535.337219 C3084.680664,539.115723 3087.612549,542.327637 3089.930420,545.795349 C3092.692627,549.927979 3094.932861,554.562317 3098.327637,558.084412 C3103.779785,563.741272 3110.805908,567.563965 3118.616943,568.320557 C3122.039307,568.652039 3121.996582,569.721191 3121.615479,572.003296 C3116.485840,570.350464 3111.791748,568.505188 3106.964111,567.130493 C3105.515137,566.717896 3103.692871,567.616638 3102.041504,567.914551 C3101.502441,567.749512 3100.963135,567.584473 3100.504150,566.922241 C3100.233643,563.642334 3099.856934,560.903015 3096.125244,563.744324 z" style="fill: rgb(102, 102, 102);" transform="matrix(1, 0, 0, 1, -4.547473508864641e-13, 0)"/>
  <path opacity="1.000000" stroke="none" d=" M3176.991699,567.966675 C3176.187744,568.556580 3175.383545,569.146423 3174.198242,569.484375 C3172.214600,569.158203 3170.612061,569.083984 3169.053223,568.647461 C3170.097412,567.256226 3170.999756,565.467529 3172.115234,565.322510 C3178.903076,564.440125 3182.821289,559.467712 3186.375244,554.758606 C3191.571289,547.873352 3196.588379,540.619568 3200.187012,532.832031 C3203.414062,525.848083 3207.155029,518.565735 3206.039307,510.254608 C3205.271973,504.537201 3204.577148,498.810059 3203.851074,492.694855 C3202.234619,487.869171 3200.617432,483.435913 3199.230225,478.764587 C3199.594727,478.351257 3199.729004,478.175964 3199.863281,478.000671 C3207.806641,487.908722 3209.494385,499.748047 3209.042725,511.728180 C3208.164795,535.012390 3197.103027,553.123535 3178.342285,567.001587 C3177.572998,567.254028 3177.282471,567.610352 3176.991699,567.966675 z" style="fill: rgb(102, 102, 102);" transform="matrix(1, 0, 0, 1, -4.547473508864641e-13, 0)"/>
  <path opacity="1.000000" stroke="none" d=" M3169.009766,569.009766 C3170.612061,569.083984 3172.214600,569.158203 3173.893799,569.536377 C3149.883789,582.699707 3126.065430,581.834351 3102.266846,568.178040 C3103.692871,567.616638 3105.515137,566.717896 3106.964111,567.130493 C3111.791748,568.505188 3116.485840,570.350464 3121.990234,572.022461 C3123.500000,572.052979 3124.250244,572.076477 3125.261963,572.354126 C3136.746094,575.906860 3147.897461,575.292236 3159.348389,571.982422 C3160.800049,571.647339 3161.903564,571.327332 3163.374023,571.016724 C3165.174805,570.396118 3166.608154,569.765991 3168.283203,569.100952 C3168.524658,569.065979 3169.009766,569.009766 3169.009766,569.009766 z" style="fill: rgb(102, 102, 102);" transform="matrix(1, 0, 0, 1, -4.547473508864641e-13, 0)"/>
  <path opacity="1.000000" stroke="none" d=" M3159.063232,453.920288 C3155.882080,452.983032 3152.701172,452.045807 3149.353271,451.059387 C3149.321045,451.128418 3149.623779,450.478851 3149.974121,449.534332 C3159.409912,447.577698 3167.782959,450.823883 3175.651367,455.209473 C3180.666504,458.004700 3185.067871,461.901215 3189.832520,465.927704 C3189.280518,467.034241 3188.640381,467.517120 3187.776855,467.747009 C3186.031250,465.999908 3184.509033,464.505798 3182.831055,462.709106 C3180.446777,461.276398 3178.218506,460.146240 3175.634766,458.965271 C3172.852783,457.934082 3170.426270,456.953674 3167.821289,455.742249 C3167.094971,455.342712 3166.547363,455.174133 3165.607666,454.990143 C3163.164551,454.623230 3161.114014,454.271759 3159.063232,453.920288 z" style="fill: rgb(102, 102, 102);" transform="matrix(1, 0, 0, 1, -4.547473508864641e-13, 0)"/>
  <path fill="#D3D4D1" opacity="1.000000" stroke="none" d=" M3132.653076,436.574982 C3131.719727,438.296997 3130.810791,439.596985 3129.901855,440.897034 C3128.974365,439.409363 3127.401123,437.989838 3127.235352,436.421539 C3126.658447,430.964081 3127.656738,429.176483 3132.018555,427.277649 C3132.252197,430.423492 3132.465088,433.288208 3132.653076,436.574982 z" transform="matrix(1, 0, 0, 1, -4.547473508864641e-13, 0)"/>
  <path fill="#D3D4D1" opacity="1.000000" stroke="none" d=" M3148.629395,427.438599 C3149.270996,431.516418 3149.635254,435.439087 3149.669678,439.364685 C3149.672363,439.663544 3146.862793,440.656616 3146.173828,440.171478 C3143.720215,438.443634 3145.408203,428.981720 3148.629395,427.438599 z" transform="matrix(1, 0, 0, 1, -4.547473508864641e-13, 0)"/>
  <path fill="#ADB9B0" opacity="1.000000" stroke="none" d=" M3140.790283,430.536865 C3140.701172,434.254578 3140.581787,437.542725 3140.462646,440.830872 C3139.832520,440.840973 3139.202637,440.851074 3138.572754,440.861206 C3136.691162,437.238586 3136.451416,433.175781 3137.854492,429.372589 C3138.863525,426.638092 3140.229736,427.968689 3140.790283,430.536865 z" transform="matrix(1, 0, 0, 1, -4.547473508864641e-13, 0)"/>
  <path opacity="1.000000" stroke="none" d=" M3193.009033,468.967468 C3195.270508,471.769196 3197.531982,474.570862 3199.828369,477.686584 C3199.729004,478.175964 3199.594727,478.351257 3198.940430,478.620178 C3197.305664,478.121613 3196.190674,477.529419 3194.998535,476.612091 C3193.947754,474.856323 3192.973877,473.425690 3192.036621,471.675201 C3192.385010,470.559357 3192.697021,469.763397 3193.009033,468.967468 z" style="fill: rgb(102, 102, 102);" transform="matrix(1, 0, 0, 1, -4.547473508864641e-13, 0)"/>
  <path opacity="1.000000" stroke="none" d=" M3192.916504,468.667816 C3192.697021,469.763397 3192.385010,470.559357 3191.695312,471.635925 C3190.211914,470.610992 3189.105957,469.305511 3188.000000,468.000000 C3188.640381,467.517120 3189.280518,467.034241 3189.983398,466.228210 C3190.971680,466.726044 3191.897705,467.547119 3192.916504,468.667816 z" style="fill: rgb(102, 102, 102);" transform="matrix(1, 0, 0, 1, -4.547473508864641e-13, 0)"/>
  <path opacity="1.000000" stroke="none" d=" M3096.306396,564.011719 C3099.856934,560.903015 3100.233643,563.642334 3100.388428,566.654175 C3098.957764,566.015320 3097.722656,565.147217 3096.306396,564.011719 z" style="fill: rgb(102, 102, 102);" transform="matrix(1, 0, 0, 1, -4.547473508864641e-13, 0)"/>
  <path fill="#C7C8C3" opacity="1.000000" stroke="none" d=" M3177.228027,567.928101 C3177.282471,567.610352 3177.572998,567.254028 3178.002197,567.072266 C3178.012207,567.563354 3177.786865,567.777588 3177.228027,567.928101 z" transform="matrix(1, 0, 0, 1, -4.547473508864641e-13, 0)"/>
  <path opacity="1.000000" stroke="none" d=" M3187.776855,467.747040 C3189.105957,469.305511 3190.211914,470.610992 3191.658936,471.955750 C3192.973877,473.425690 3193.947754,474.856323 3195.022461,476.996552 C3196.828125,482.171814 3198.386230,486.703979 3200.349609,491.053040 C3200.801514,492.053925 3202.645996,492.425903 3203.849854,493.087280 C3204.577148,498.810059 3205.271973,504.537201 3206.039307,510.254608 C3207.155029,518.565735 3203.414062,525.848083 3200.187012,532.832031 C3196.588379,540.619568 3191.571289,547.873352 3186.375244,554.758606 C3182.821289,559.467712 3178.903076,564.440125 3172.115234,565.322510 C3170.999756,565.467529 3170.097412,567.256226 3169.053223,568.647461 C3169.009766,569.009766 3168.524658,569.065979 3167.889160,569.067261 C3165.838135,569.714783 3164.422363,570.360962 3163.006836,571.007202 C3161.903564,571.327332 3160.800049,571.647339 3159.104736,571.728760 C3155.644775,571.399048 3152.639648,570.720337 3149.940674,571.351257 C3145.629150,572.359070 3141.927002,572.795898 3139.139648,566.714539 C3137.810547,573.725281 3133.981201,572.026794 3130.213623,571.338074 C3128.577148,571.038818 3126.744141,571.813171 3125.000488,572.099976 C3124.250244,572.076477 3123.500000,572.052979 3122.375000,572.010376 C3121.996582,569.721191 3122.039307,568.652039 3118.616943,568.320557 C3110.805908,567.563965 3103.779785,563.741272 3098.327637,558.084412 C3094.932861,554.562317 3092.692627,549.927979 3089.930420,545.795349 C3087.612549,542.327637 3084.680664,539.115723 3083.113770,535.337219 C3080.884521,529.961731 3078.418701,524.202087 3078.277100,518.550781 C3078.037109,508.971466 3078.718018,499.189270 3080.553955,489.793732 C3082.070068,482.036011 3087.802490,476.044922 3093.318359,470.389862 C3095.167969,468.493469 3097.404785,466.903320 3098.953125,464.797302 C3104.692383,456.991608 3112.768555,456.630371 3121.316895,457.162262 C3123.130615,457.275085 3124.988281,456.170868 3126.855225,456.035248 C3137.281738,455.277771 3147.717773,454.645691 3158.606934,453.945526 C3161.114014,454.271759 3163.164551,454.623230 3165.644043,455.273560 C3166.715088,455.706055 3167.357422,455.839691 3168.000000,455.973297 C3170.426270,456.953674 3172.852783,457.934082 3175.702148,459.308594 C3178.412354,460.805725 3180.699463,461.908691 3182.986816,463.011658 C3184.509033,464.505798 3186.031250,465.999908 3187.776855,467.747040 M3143.859619,484.531860 C3143.491455,483.975494 3143.123535,483.419128 3142.755371,482.862793 C3142.432129,483.525604 3142.108887,484.188446 3141.451904,485.343872 C3141.375977,485.926086 3141.300049,486.508331 3140.771484,487.641754 C3140.775146,488.815216 3140.778809,489.988647 3140.372559,491.816803 C3138.352783,498.214325 3135.952637,504.333923 3128.635010,506.854919 C3128.300537,507.918823 3127.966309,508.982697 3127.436523,510.795624 C3127.016602,513.723755 3127.208984,516.329468 3131.152344,517.561279 C3131.626221,517.837708 3132.100098,518.114136 3132.030518,518.872253 C3132.218506,519.653687 3132.144287,520.836060 3132.634033,521.156433 C3139.904053,525.913391 3157.704346,520.934448 3161.933105,513.089050 C3163.008057,511.094666 3162.865479,509.965942 3160.085938,509.329468 C3160.177246,508.838501 3160.268555,508.347534 3160.833984,507.496857 C3164.764404,503.326111 3159.859131,502.629364 3158.077881,501.781769 C3151.883789,498.834534 3147.881592,494.561768 3146.854736,487.595947 C3146.708252,486.602997 3145.119629,485.822693 3143.983643,485.139160 C3143.983643,485.139160 3143.694092,485.118774 3143.859619,484.531860 z" style="fill: rgb(102, 102, 102);" transform="matrix(1, 0, 0, 1, -4.547473508864641e-13, 0)"/>
  <path opacity="1.000000" stroke="none" d=" M3203.851074,492.694855 C3202.645996,492.425903 3200.801514,492.053925 3200.349609,491.053040 C3198.386230,486.703979 3196.828125,482.171814 3195.099121,477.321686 C3196.190674,477.529419 3197.305664,478.121613 3198.710449,478.858215 C3200.617432,483.435913 3202.234619,487.869171 3203.851074,492.694855 z" style="fill: rgb(102, 102, 102);" transform="matrix(1, 0, 0, 1, -4.547473508864641e-13, 0)"/>
  <path opacity="1.000000" stroke="none" d=" M3125.261963,572.354187 C3126.744141,571.813171 3128.577148,571.038818 3130.213623,571.338074 C3133.981201,572.026794 3137.810547,573.725281 3139.139648,566.714539 C3141.927002,572.795898 3145.629150,572.359070 3149.940674,571.351257 C3152.639648,570.720337 3155.644775,571.399048 3158.756348,571.743774 C3147.897461,575.292236 3136.746094,575.906860 3125.261963,572.354187 z" style="fill: rgb(102, 102, 102);" transform="matrix(1, 0, 0, 1, -4.547473508864641e-13, 0)"/>
  <path fill="#ADB9B0" opacity="1.000000" stroke="none" d=" M3163.374023,571.016724 C3164.422363,570.360962 3165.838135,569.714783 3167.647705,569.102173 C3166.608154,569.765991 3165.174805,570.396118 3163.374023,571.016724 z" transform="matrix(1, 0, 0, 1, -4.547473508864641e-13, 0)"/>
  <path fill="#9DA99F" opacity="1.000000" stroke="none" d=" M3182.831055,462.709106 C3180.699463,461.908691 3178.412354,460.805725 3176.057617,459.359406 C3178.218506,460.146240 3180.446777,461.276398 3182.831055,462.709106 z" transform="matrix(1, 0, 0, 1, -4.547473508864641e-13, 0)"/>
  <path fill="#9DA99F" opacity="1.000000" stroke="none" d=" M3167.821289,455.742310 C3167.357422,455.839691 3166.715088,455.706055 3166.036133,455.289001 C3166.547363,455.174133 3167.094971,455.342712 3167.821289,455.742310 z" transform="matrix(1, 0, 0, 1, -4.547473508864641e-13, 0)"/>
  <path fill="#111713" opacity="1.000000" stroke="none" d=" M3130.784424,517.153809 C3127.208984,516.329468 3127.016602,513.723755 3127.764648,510.333527 C3128.435059,508.985779 3128.777588,508.100098 3129.120117,507.214478 C3135.952637,504.333923 3138.352783,498.214325 3140.865234,491.447510 C3142.142334,491.069366 3142.926758,491.060547 3143.872070,491.406311 C3144.861816,494.577972 3145.475586,497.481720 3146.569092,500.191925 C3148.263916,504.392578 3150.330811,508.171417 3156.182861,506.378723 C3157.317871,506.031067 3158.954590,507.321686 3160.359863,507.856567 C3160.268555,508.347534 3160.177246,508.838501 3159.948242,509.969177 C3157.562256,512.277588 3155.313965,513.946228 3153.028076,515.191467 C3152.468018,512.962219 3151.945312,511.156433 3151.467041,509.503540 C3149.545166,509.656158 3147.836670,509.791870 3145.885742,509.707275 C3140.086182,507.691254 3133.691895,510.982635 3132.700195,516.122437 C3131.870850,516.546509 3131.327637,516.850159 3130.784424,517.153809 z" transform="matrix(1, 0, 0, 1, -4.547473508864641e-13, 0)"/>
  <path opacity="1.000000" stroke="none" d=" M3160.596924,507.676697 C3158.954590,507.321686 3157.317871,506.031067 3156.182861,506.378723 C3150.330811,508.171417 3148.263916,504.392578 3146.569092,500.191925 C3145.475586,497.481720 3144.861816,494.577972 3143.966064,491.060852 C3143.835693,489.890381 3143.772217,489.420044 3143.845215,488.566315 C3144.053711,487.103271 3144.126221,486.023590 3144.198730,484.943939 C3145.119629,485.822693 3146.708252,486.602997 3146.854736,487.595947 C3147.881592,494.561768 3151.883789,498.834534 3158.077881,501.781769 C3159.859131,502.629364 3164.764404,503.326111 3160.596924,507.676697 z" style="fill: rgb(102, 102, 102);" transform="matrix(1, 0, 0, 1, -4.547473508864641e-13, 0)"/>
  <path opacity="1.000000" stroke="none" d=" M3153.065430,515.614868 C3155.313965,513.946228 3157.562256,512.277588 3160.046875,510.337158 C3162.865479,509.965942 3163.008057,511.094666 3161.933105,513.089050 C3157.704346,520.934448 3139.904053,525.913391 3132.634033,521.156433 C3132.144287,520.836060 3132.218506,519.653687 3132.668457,518.763184 C3139.167480,520.914185 3144.679688,520.088379 3150.215332,516.827759 C3151.368408,516.457397 3152.216797,516.036133 3153.065430,515.614868 z" style="fill: rgb(102, 102, 102);" transform="matrix(1, 0, 0, 1, -4.547473508864641e-13, 0)"/>
  <path opacity="1.000000" stroke="none" d=" M3149.910889,516.776855 C3144.679688,520.088379 3139.167480,520.914185 3132.940186,518.522339 C3132.100098,518.114136 3131.626221,517.837708 3130.968262,517.357544 C3131.327637,516.850159 3131.870850,516.546509 3133.039551,516.286255 C3135.263428,516.231750 3137.076904,516.579834 3138.411621,515.935974 C3140.658691,514.852234 3142.601807,513.138550 3145.080566,511.790710 C3147.046143,511.997467 3148.603516,512.103333 3150.340576,512.221375 C3150.177734,513.946533 3150.044189,515.361694 3149.910889,516.776855 z" style="fill: rgb(102, 102, 102);" transform="matrix(1, 0, 0, 1, -4.547473508864641e-13, 0)"/>
  <path opacity="1.000000" stroke="none" d=" M3143.708984,488.949677 C3143.772217,489.420044 3143.835693,489.890381 3143.805176,490.706207 C3142.926758,491.060547 3142.142334,491.069366 3141.070312,491.120178 C3140.778809,489.988647 3140.775146,488.815216 3141.207031,487.541809 C3142.331299,487.944458 3143.020264,488.447083 3143.708984,488.949677 z" style="fill: rgb(102, 102, 102);" transform="matrix(1, 0, 0, 1, -4.547473508864641e-13, 0)"/>
  <path fill="#111713" opacity="1.000000" stroke="none" d=" M3143.845215,488.566315 C3143.020264,488.447083 3142.331299,487.944458 3141.433350,487.266174 C3141.300049,486.508331 3141.375977,485.926086 3141.937012,485.144958 C3142.845947,485.003632 3143.270020,485.061218 3143.694092,485.118774 C3143.694092,485.118774 3143.983643,485.139160 3144.091309,485.041534 C3144.126221,486.023590 3144.053711,487.103271 3143.845215,488.566315 z" transform="matrix(1, 0, 0, 1, -4.547473508864641e-13, 0)"/>
  <path fill="#252926" opacity="1.000000" stroke="none" d=" M3128.877441,507.034668 C3128.777588,508.100098 3128.435059,508.985779 3127.862305,509.958984 C3127.966309,508.982697 3128.300537,507.918823 3128.877441,507.034668 z" transform="matrix(1, 0, 0, 1, -4.547473508864641e-13, 0)"/>
  <path fill="#253F2D" opacity="1.000000" stroke="none" d=" M3143.776855,484.825317 C3143.270020,485.061218 3142.845947,485.003632 3142.103760,484.898682 C3142.108887,484.188446 3142.432129,483.525604 3142.755371,482.862762 C3143.123535,483.419128 3143.491455,483.975494 3143.776855,484.825317 z" transform="matrix(1, 0, 0, 1, -4.547473508864641e-13, 0)"/>
  <path opacity="1.000000" stroke="none" d=" M3144.672607,511.689819 C3142.601807,513.138550 3140.658691,514.852234 3138.411621,515.935974 C3137.076904,516.579834 3135.263428,516.231750 3133.325684,516.165771 C3133.691895,510.982635 3140.086182,507.691254 3145.743408,509.957367 C3145.453369,510.848450 3145.062988,511.269135 3144.672607,511.689819 z" style="fill: rgb(102, 102, 102);" transform="matrix(1, 0, 0, 1, -4.547473508864641e-13, 0)"/>
  <path opacity="1.000000" stroke="none" d=" M3145.080566,511.790710 C3145.062988,511.269135 3145.453369,510.848450 3145.985840,510.177673 C3147.836670,509.791870 3149.545166,509.656158 3151.467041,509.503540 C3151.945312,511.156433 3152.468018,512.962219 3153.028076,515.191406 C3152.216797,516.036133 3151.368408,516.457397 3150.215332,516.827759 C3150.044189,515.361694 3150.177734,513.946533 3150.340576,512.221375 C3148.603516,512.103333 3147.046143,511.997467 3145.080566,511.790710 z" style="fill: rgb(102, 102, 102);" transform="matrix(1, 0, 0, 1, -4.547473508864641e-13, 0)"/>
</svg>
