<?xml version="1.0" encoding="utf-8"?>
<svg viewBox="1258.3997 443.0915 162.75 199.327" xmlns="http://www.w3.org/2000/svg">
  <path fill="#EEF1F1" opacity="1.000000" stroke="none" d="M 1353.142 456.13 C 1356.221 460.362 1358.609 464.74 1361.931 468.231 C 1365.693 472.185 1369.055 475.976 1369.301 481.768 C 1369.351 482.957 1370.415 485.106 1371.03 485.113 C 1376.534 485.17 1377.528 490.405 1380.755 492.991 C 1385.209 496.56 1390.329 499.29 1395.082 502.502 C 1396.932 503.752 1398.478 505.446 1400.304 506.738 C 1402.666 508.411 1405.306 509.711 1407.57 511.497 C 1409.364 512.912 1411.591 514.561 1412.212 516.548 C 1415.008 525.496 1417.881 534.49 1419.64 543.675 C 1422.541 558.828 1421.151 573.867 1416.416 588.596 C 1415.799 590.514 1415.592 592.753 1415.889 594.74 C 1416.721 600.305 1414.048 605.644 1408.95 608.332 C 1407.081 609.318 1404.822 610.448 1403.875 612.144 C 1399.731 619.566 1392.122 622.631 1385.752 627.234 C 1382.724 629.423 1379.664 631.727 1376.288 633.243 C 1369.292 636.385 1362.074 639.032 1354.951 641.895 C 1354.649 642.017 1354.383 642.435 1354.12 642.418 C 1346.853 641.946 1339.588 641.454 1332.327 640.905 C 1331.534 640.845 1330.633 640.02 1330.01 640.229 C 1321.479 643.097 1315.888 636.638 1309.078 633.932 C 1306.206 632.791 1302.785 632.408 1299.677 632.616 C 1293.379 633.036 1293.201 627.093 1290.223 624.147 C 1287.761 621.712 1286.145 618.423 1283.686 615.983 C 1279.242 611.572 1273.089 608.279 1270.171 603.099 C 1267.042 597.544 1262.729 593.476 1259.14 588.648 C 1257.292 586.164 1259.418 580.625 1259.977 576.497 C 1260.226 574.65 1261.638 572.83 1261.493 571.082 C 1260.616 560.47 1261.363 550.076 1264.553 539.874 C 1265.54 536.718 1266.8 533.494 1266.948 530.256 C 1267.441 519.46 1273.898 512.315 1281.258 505.657 C 1285.467 501.848 1290.881 499.224 1291.535 492.387 C 1291.685 490.824 1294.853 489.55 1296.632 488.143 C 1297.022 488.598 1297.412 489.052 1297.802 489.507 C 1297.003 490.754 1296.203 492 1295.404 493.247 C 1295.785 493.626 1296.166 494.006 1296.547 494.385 C 1298.508 492.42 1300.469 490.455 1302.661 488.259 C 1303.924 488.702 1305.457 489.242 1307.751 490.048 C 1309.2 485.461 1310.701 480.996 1312.01 476.475 C 1312.925 473.314 1313.369 470.007 1314.406 466.892 C 1315.584 463.355 1317.741 461.027 1322.053 461.046 C 1329.274 461.078 1330.165 459.84 1328.931 453.045 C 1328.202 449.033 1334.197 443.257 1339.172 443.195 C 1341.119 443.171 1343.105 442.945 1345.003 443.248 C 1347.834 443.7 1350.335 444.162 1349.716 448.544 C 1349.398 450.798 1351.73 453.426 1353.142 456.13 M 1341.276 459.792 C 1339.21 461.278 1337.145 462.764 1334.378 464.196 C 1332.284 466.15 1330.511 468.866 1328.034 469.908 C 1321.914 472.481 1319.076 475.819 1319.023 482.364 C 1318.989 486.51 1319.016 490.657 1319.016 495.309 C 1314.905 496.466 1310.905 497.591 1306.218 498.913 C 1295.502 504.98 1285.722 512.33 1279.424 523.042 C 1271.103 537.197 1268.011 552.683 1269.952 569.126 C 1273.074 595.568 1286.003 615.995 1309.849 627.42 C 1332.488 638.266 1355.875 639.347 1378.341 624.805 C 1402.416 609.222 1415.494 587.847 1413.419 558.817 C 1411.698 534.746 1402.385 514.365 1380.968 501.131 C 1375.841 497.963 1370.504 495.164 1363.505 495.585 C 1363.361 494.29 1362.989 492.973 1363.112 491.704 C 1363.752 485.089 1361.348 479.273 1357.909 474.002 C 1356.567 471.944 1353.716 469.999 1351.327 469.677 C 1346.305 469 1341.134 469.43 1335.712 468.535 C 1336.919 467.736 1338.089 466.874 1339.34 466.15 C 1341.612 464.836 1344.887 464.112 1345.917 462.171 C 1346.678 460.738 1344.538 457.765 1343.4 454.845 C 1342.71 453.725 1342.271 452.095 1341.272 451.604 C 1339.755 450.859 1337.85 450.905 1336.11 450.614 C 1336.35 452.178 1336.137 454.052 1336.943 455.23 C 1338.008 456.786 1339.87 457.797 1341.276 459.792 Z" transform="matrix(1, 0, 0, 1, 0, -5.684341886080802e-14)"/>
  <path fill="#31100E" opacity="1.000000" stroke="none" d="M 1364.1 496.186 C 1370.504 495.164 1375.841 497.963 1380.968 501.131 C 1402.385 514.365 1411.698 534.746 1413.419 558.817 C 1415.494 587.847 1402.416 609.222 1378.341 624.805 C 1355.875 639.347 1332.488 638.266 1309.849 627.42 C 1286.003 615.995 1273.074 595.568 1269.952 569.126 C 1268.011 552.683 1271.103 537.197 1279.424 523.042 C 1285.722 512.33 1295.502 504.98 1306.784 499.138 C 1312.564 499.013 1317.786 498.75 1322.981 498.216 C 1323.758 498.137 1324.404 496.789 1325.504 495.97 C 1327.474 495.921 1329.05 495.93 1330.988 496.093 C 1333.604 497.676 1335.868 500.18 1338.477 496.11 C 1340.684 495.395 1342.483 494.751 1344.528 494.187 C 1345.582 494.217 1346.391 494.168 1347.384 494.46 C 1351.229 495.169 1354.888 495.537 1358.883 496.081 C 1360.866 497.725 1362.525 499.842 1364.1 496.186 M 1287.648 522.24 C 1277.483 536.695 1274.299 552.906 1276.328 570.139 C 1279.086 593.574 1291.138 611.531 1312.114 621.723 C 1323.806 627.404 1337.043 630.646 1350.789 628.371 C 1373.838 624.557 1391.841 613.299 1401.616 591.847 C 1412.019 569.013 1409.401 545.977 1397.486 524.417 C 1390.293 511.401 1379.328 502.086 1363.365 501.652 C 1350.403 501.299 1337.41 501.999 1324.456 501.533 C 1316.805 501.258 1309.739 502.356 1303.832 507.111 C 1298.279 511.581 1293.339 516.812 1287.648 522.24 Z" transform="matrix(1, 0, 0, 1, 0, -5.684341886080802e-14)"/>
  <path fill="#0C0803" opacity="1.000000" stroke="none" d="M 1363.803 495.886 C 1362.525 499.842 1360.866 497.725 1358.976 495.716 C 1357.821 492.511 1356.906 489.848 1355.949 486.806 C 1355.13 484.069 1354.353 481.71 1353.577 479.351 C 1353.101 479.489 1352.624 479.626 1352.148 479.764 C 1352.35 482.3 1352.553 484.836 1352.564 487.686 C 1350.648 490.04 1348.924 492.08 1347.199 494.119 C 1346.391 494.168 1345.582 494.217 1344.279 493.88 C 1342.993 487.861 1342.2 482.228 1341.198 475.101 C 1339.721 477.031 1338.697 478.37 1337.281 479.867 C 1336.652 485.037 1336.384 490.048 1336.265 495.063 C 1336.259 495.321 1337.536 495.609 1338.244 495.99 C 1338.272 496.095 1338.071 496.182 1338.071 496.182 C 1335.868 500.18 1333.604 497.676 1331.093 495.655 C 1330.836 488.733 1330.836 482.402 1330.836 475.955 C 1326.484 477.422 1323.462 488.691 1325.111 496.028 C 1324.404 496.789 1323.758 498.137 1322.981 498.216 C 1317.786 498.75 1312.564 499.013 1307.128 499.04 C 1310.905 497.591 1314.905 496.466 1319.016 495.309 C 1319.016 490.657 1318.989 486.51 1319.023 482.364 C 1319.076 475.819 1321.914 472.481 1328.034 469.908 C 1330.511 468.866 1332.284 466.15 1334.669 464.546 C 1332.859 469.114 1332.893 469.258 1336.023 469.406 C 1341.134 469.43 1346.305 469 1351.327 469.677 C 1353.716 469.999 1356.567 471.944 1357.909 474.002 C 1361.348 479.273 1363.752 485.089 1363.112 491.704 C 1362.989 492.973 1363.361 494.29 1363.803 495.886 Z" transform="matrix(1, 0, 0, 1, 0, -5.684341886080802e-14)"/>
  <path fill="#2D4635" opacity="1.000000" stroke="none" d="M 1335.868 468.971 C 1332.893 469.258 1332.859 469.114 1335.02 464.573 C 1337.145 462.764 1339.21 461.278 1341.556 459.128 C 1342.455 457.469 1343.072 456.474 1343.69 455.479 C 1344.538 457.765 1346.678 460.738 1345.917 462.171 C 1344.887 464.112 1341.612 464.836 1339.34 466.15 C 1338.089 466.874 1336.919 467.736 1335.868 468.971 Z" transform="matrix(1, 0, 0, 1, 0, -5.684341886080802e-14)"/>
  <path fill="#576C60" opacity="1.000000" stroke="none" d="M 1343.545 455.162 C 1343.072 456.474 1342.455 457.469 1341.613 458.754 C 1339.87 457.797 1338.008 456.786 1336.943 455.23 C 1336.137 454.052 1336.35 452.178 1336.11 450.614 C 1337.85 450.905 1339.755 450.859 1341.272 451.604 C 1342.271 452.095 1342.71 453.725 1343.545 455.162 Z" transform="matrix(1, 0, 0, 1, 0, -5.684341886080802e-14)"/>
  <path fill="#BA6966" opacity="1.000000" stroke="none" d="M 1287.889 521.974 C 1293.339 516.812 1298.279 511.581 1303.832 507.111 C 1309.739 502.356 1316.805 501.258 1324.456 501.533 C 1337.41 501.999 1350.403 501.299 1363.365 501.652 C 1379.328 502.086 1390.293 511.401 1397.486 524.417 C 1409.401 545.977 1412.019 569.013 1401.616 591.847 C 1391.841 613.299 1373.838 624.557 1350.789 628.371 C 1337.043 630.646 1323.806 627.404 1312.114 621.723 C 1291.138 611.531 1279.086 593.574 1276.328 570.139 C 1274.299 552.906 1277.483 536.695 1287.889 521.974 M 1335.22 507.122 C 1328.433 507.451 1321.645 507.768 1314.86 508.125 C 1314.047 508.167 1313.143 508.239 1312.456 508.616 C 1302.086 514.3 1293.143 521.38 1288.658 532.88 C 1288.179 534.107 1286.966 535.049 1285.459 536.48 C 1283.817 539.771 1281.588 542.92 1280.739 546.404 C 1280.173 548.728 1281.573 551.53 1282.071 554.885 C 1281.744 556.629 1281.418 558.374 1280.596 560.558 C 1280.759 561.745 1280.922 562.932 1281.089 564.784 C 1281.089 565.227 1281.089 565.67 1280.548 566.691 C 1281.005 570.896 1280.658 575.408 1282.116 579.232 C 1284.063 584.335 1287.711 588.759 1290.098 593.729 C 1295.826 605.658 1306.208 612.531 1317.457 617.645 C 1324.775 620.972 1333.188 622.644 1341.257 623.331 C 1347.708 623.88 1354.432 622.082 1360.935 620.814 C 1364.059 620.205 1366.887 618.217 1369.963 617.2 C 1377.864 614.588 1384.365 609.626 1388.733 603 C 1394.611 594.084 1400.62 585.383 1402.956 574.11 C 1405.114 563.7 1403.126 554.212 1401.364 544.637 C 1400.169 538.139 1396.466 531.873 1392.906 526.107 C 1389.67 520.865 1385.649 515.796 1380.952 511.876 C 1377.778 509.227 1372.931 508.041 1368.652 507.399 C 1363.571 506.636 1358.298 507.159 1352.438 507.122 C 1351.992 507.123 1351.545 507.123 1350.514 506.567 C 1347.292 506.596 1343.681 504.223 1340.338 508.091 C 1339.595 508.09 1338.852 508.089 1337.747 507.628 C 1337.197 507.463 1336.648 507.298 1335.22 507.122 Z" transform="matrix(1, 0, 0, 1, 0, -5.684341886080802e-14)"/>
  <path fill="#E2E2E1" opacity="1.000000" stroke="none" d="M 1325.504 495.97 C 1323.462 488.691 1326.484 477.422 1330.836 475.955 C 1330.836 482.402 1330.836 488.733 1330.731 495.501 C 1329.05 495.93 1327.474 495.921 1325.504 495.97 Z" transform="matrix(1, 0, 0, 1, 0, -5.684341886080802e-14)"/>
  <path fill="#EEF1F1" opacity="1.000000" stroke="none" d="M 1337.673 479.709 C 1338.697 478.37 1339.721 477.031 1341.198 475.101 C 1342.2 482.228 1342.993 487.861 1344.034 493.801 C 1342.483 494.751 1340.684 495.395 1338.477 496.11 C 1338.071 496.182 1338.272 496.095 1338.166 495.541 C 1337.931 489.894 1337.802 484.802 1337.673 479.709 Z" transform="matrix(1, 0, 0, 1, 0, -5.684341886080802e-14)"/>
  <path fill="#E2E2E1" opacity="1.000000" stroke="none" d="M 1347.384 494.46 C 1348.924 492.08 1350.648 490.04 1352.885 487.607 C 1354.262 487.203 1355.127 487.193 1355.992 487.184 C 1356.906 489.848 1357.821 492.511 1358.641 495.54 C 1354.888 495.537 1351.229 495.169 1347.384 494.46 Z" transform="matrix(1, 0, 0, 1, 0, -5.684341886080802e-14)"/>
  <path fill="#9DA99F" opacity="1.000000" stroke="none" d="M 1337.281 479.867 C 1337.802 484.802 1337.931 489.894 1338.137 495.435 C 1337.536 495.609 1336.259 495.321 1336.265 495.063 C 1336.384 490.048 1336.652 485.037 1337.281 479.867 Z" transform="matrix(1, 0, 0, 1, 0, -5.684341886080802e-14)"/>
  <path fill="#919991" opacity="1.000000" stroke="none" d="M 1355.949 486.806 C 1355.127 487.193 1354.262 487.203 1353.076 487.292 C 1352.553 484.836 1352.35 482.3 1352.148 479.764 C 1352.624 479.626 1353.101 479.489 1353.577 479.351 C 1354.353 481.71 1355.13 484.069 1355.949 486.806 Z" transform="matrix(1, 0, 0, 1, 0, -5.684341886080802e-14)"/>
  <path fill="#C35853" opacity="1.000000" stroke="none" d="M 1353.108 507.125 C 1358.298 507.159 1363.571 506.636 1368.652 507.399 C 1372.931 508.041 1377.778 509.227 1380.952 511.876 C 1385.649 515.796 1389.67 520.865 1392.906 526.107 C 1396.466 531.873 1400.169 538.139 1401.364 544.637 C 1403.126 554.212 1405.114 563.7 1402.956 574.11 C 1400.62 585.383 1394.611 594.084 1388.733 603 C 1384.365 609.626 1377.864 614.588 1369.963 617.2 C 1366.887 618.217 1364.059 620.205 1360.935 620.814 C 1354.432 622.082 1347.708 623.88 1341.257 623.331 C 1333.188 622.644 1324.775 620.972 1317.457 617.645 C 1306.208 612.531 1295.826 605.658 1290.098 593.729 C 1287.711 588.759 1284.063 584.335 1282.116 579.232 C 1280.658 575.408 1281.005 570.896 1281.09 566.604 C 1285.502 568.809 1285.264 571.702 1282.164 575.14 C 1284.268 575.727 1285.785 576.151 1286.412 576.326 C 1289.015 580.605 1290.712 584.845 1293.66 587.866 C 1297.144 591.437 1298.708 595.231 1299.38 600.032 C 1300.136 605.434 1303.319 607.395 1307.844 605.947 C 1306.83 605.123 1305.832 604.52 1305.125 603.674 C 1304.493 602.917 1304.182 601.892 1303.728 600.985 C 1304.801 600.631 1305.938 599.87 1306.932 600.024 C 1308.281 600.234 1309.562 601.072 1310.8 601.768 C 1313.28 603.161 1315.592 604.954 1318.213 605.947 C 1319.436 606.41 1321.22 605.393 1322.75 605.047 C 1322.004 603.786 1321.254 602.528 1320.513 601.264 C 1320.081 600.528 1319.662 599.784 1319.544 599.578 C 1322.724 598.19 1325.533 596.963 1328.315 595.749 C 1330.729 604.062 1331.835 604.974 1340.187 605.61 C 1341.075 602.482 1342.022 599.398 1342.783 596.269 C 1342.947 595.596 1342.662 594.514 1342.175 594.071 C 1341.74 593.675 1340.569 593.604 1340.023 593.916 C 1338.75 594.641 1337.639 595.659 1336.5 596.605 C 1335.581 597.368 1334.718 598.199 1333.83 598.999 C 1333.146 598.17 1331.963 597.379 1331.895 596.502 C 1331.793 595.207 1332.099 593.508 1332.916 592.59 C 1334.745 590.537 1336.995 588.859 1339.611 586.555 C 1340.664 586.555 1342.628 586.555 1345.653 586.555 C 1342.752 583.878 1340.671 581.958 1338.235 579.711 C 1343.153 578.193 1346.151 580.058 1348.363 584.305 C 1350.527 580.998 1351.491 578.363 1346.88 577.975 C 1342.201 577.582 1337.462 577.888 1334.285 577.888 C 1332.303 575.25 1331.262 573.425 1329.807 572.032 C 1327.783 570.093 1325.302 568.629 1323.288 566.682 C 1321.177 564.639 1320.323 562.25 1323.492 559.988 C 1324.553 560.131 1325.26 560.23 1326.005 560.688 C 1327.011 562.431 1327.977 563.815 1329.184 565.452 C 1332.679 567.222 1336.202 568.346 1339.137 570.336 C 1345.656 574.756 1345.536 574.933 1348.736 573.678 C 1344.241 569.758 1343.556 566.468 1347.246 563.045 C 1348.802 561.602 1351.528 561.056 1353.795 560.83 C 1357.367 560.476 1361 560.736 1364.607 560.736 C 1363.838 559.011 1362.994 558.041 1361.994 557.839 C 1353.989 556.222 1351.441 549.47 1348.079 543.418 C 1347.448 542.282 1346.174 540.486 1345.502 540.613 C 1344.301 540.84 1343.029 542.12 1342.343 543.287 C 1341.529 544.671 1341.304 546.4 1340.496 548.1 C 1340.474 550.837 1340.781 553.453 1340.826 556.171 C 1340.204 556.373 1339.843 556.473 1339.122 556.417 C 1336.878 555.245 1334.994 554.227 1332.627 552.948 C 1332.382 554.764 1332.237 555.835 1331.654 556.938 C 1328.175 556.735 1325.135 556.499 1322.14 555.875 C 1322.389 554.855 1322.495 554.167 1322.814 553.599 C 1323.633 552.139 1324.546 550.732 1325.421 549.303 C 1326.511 550.385 1327.568 551.503 1328.711 552.524 C 1329.028 552.807 1329.6 552.804 1330.184 552.969 C 1330.502 551.522 1330.436 549.912 1331.183 548.907 C 1332.073 547.709 1333.661 547.03 1335.302 545.876 C 1333.662 544.731 1332.516 543.932 1330.07 542.226 C 1333.312 540.521 1335.555 538.763 1338.078 538.139 C 1342.747 536.983 1347.563 536.301 1352.358 535.896 C 1353.231 535.822 1354.574 537.868 1355.217 539.174 C 1356.924 542.64 1358.233 546.356 1363.502 548.076 C 1361.318 542.518 1354.122 539.087 1359.045 532.79 C 1361.346 534.959 1365.342 536.944 1365.594 539.326 C 1366.164 544.691 1370.447 545.16 1373.675 547.573 C 1373.905 544.881 1374.204 540.734 1373.001 540.239 C 1367.561 538.002 1368.65 535.034 1370.783 531.276 C 1371.179 530.579 1370.775 529.359 1370.586 528.411 C 1370.141 526.19 1369.774 523.93 1369.051 521.796 C 1368.405 519.889 1367.781 517.557 1366.349 516.411 C 1362.148 513.049 1357.55 510.185 1353.108 507.125 Z" transform="matrix(1, 0, 0, 1, 0, -5.684341886080802e-14)"/>
  <path fill="#C0524B" opacity="1.000000" stroke="none" d="M 1323.138 559.945 C 1320.323 562.25 1321.177 564.639 1323.288 566.682 C 1325.302 568.629 1327.783 570.093 1329.807 572.032 C 1331.262 573.425 1332.303 575.25 1334.285 577.888 C 1337.462 577.888 1342.201 577.582 1346.88 577.975 C 1351.491 578.363 1350.527 580.998 1348.363 584.305 C 1346.151 580.058 1343.153 578.193 1338.235 579.711 C 1340.671 581.958 1342.752 583.878 1345.653 586.555 C 1342.628 586.555 1340.664 586.555 1339.611 586.555 C 1336.995 588.859 1334.745 590.537 1332.916 592.59 C 1332.099 593.508 1331.793 595.207 1331.895 596.502 C 1331.963 597.379 1333.146 598.17 1333.83 598.999 C 1334.718 598.199 1335.581 597.368 1336.5 596.605 C 1337.639 595.659 1338.75 594.641 1340.023 593.916 C 1340.569 593.604 1341.74 593.675 1342.175 594.071 C 1342.662 594.514 1342.947 595.596 1342.783 596.269 C 1342.022 599.398 1341.075 602.482 1340.187 605.61 C 1331.835 604.974 1330.729 604.062 1328.315 595.749 C 1325.533 596.963 1322.724 598.19 1319.544 599.578 C 1319.662 599.784 1320.081 600.528 1320.513 601.264 C 1321.254 602.528 1322.004 603.786 1322.75 605.047 C 1321.22 605.393 1319.436 606.41 1318.213 605.947 C 1315.592 604.954 1313.28 603.161 1310.8 601.768 C 1309.562 601.072 1308.281 600.234 1306.932 600.024 C 1305.938 599.87 1304.801 600.631 1303.728 600.985 C 1304.182 601.892 1304.493 602.917 1305.125 603.674 C 1305.832 604.52 1306.83 605.123 1307.844 605.947 C 1303.319 607.395 1300.136 605.434 1299.38 600.032 C 1298.708 595.231 1297.144 591.437 1293.66 587.866 C 1290.712 584.845 1289.015 580.605 1286.412 576.326 C 1285.785 576.151 1284.268 575.727 1282.164 575.14 C 1285.264 571.702 1285.502 568.809 1281.36 566.315 C 1281.089 565.67 1281.089 565.227 1281.339 564.233 C 1281.423 562.494 1281.257 561.306 1281.091 560.118 C 1281.418 558.374 1281.744 556.629 1282.393 554.341 C 1287.55 548.615 1286.055 542.222 1286.093 536.123 C 1286.966 535.049 1288.179 534.107 1288.658 532.88 C 1293.143 521.38 1302.086 514.3 1312.456 508.616 C 1313.143 508.239 1314.047 508.167 1314.86 508.125 C 1321.645 507.768 1328.433 507.451 1335.697 507.411 C 1336.819 507.83 1337.464 507.958 1338.108 508.087 C 1338.852 508.089 1339.595 508.09 1341.086 508.149 C 1344.922 507.846 1348.01 507.484 1351.099 507.123 C 1351.545 507.123 1351.992 507.123 1352.773 507.124 C 1357.55 510.185 1362.148 513.049 1366.349 516.411 C 1367.781 517.557 1368.405 519.889 1369.051 521.796 C 1369.774 523.93 1370.141 526.19 1370.586 528.411 C 1370.775 529.359 1371.179 530.579 1370.783 531.276 C 1368.65 535.034 1367.561 538.002 1373.001 540.239 C 1374.204 540.734 1373.905 544.881 1373.675 547.573 C 1370.447 545.16 1366.164 544.691 1365.594 539.326 C 1365.342 536.944 1361.346 534.959 1359.045 532.79 C 1354.122 539.087 1361.318 542.518 1363.502 548.076 C 1358.233 546.356 1356.924 542.64 1355.217 539.174 C 1354.574 537.868 1353.231 535.822 1352.358 535.896 C 1347.563 536.301 1342.747 536.983 1338.078 538.139 C 1335.555 538.763 1333.312 540.521 1330.07 542.226 C 1332.516 543.932 1333.662 544.731 1335.302 545.876 C 1333.661 547.03 1332.073 547.709 1331.183 548.907 C 1330.436 549.912 1330.502 551.522 1330.184 552.969 C 1329.6 552.804 1329.028 552.807 1328.711 552.524 C 1327.568 551.503 1326.511 550.385 1325.421 549.303 C 1324.546 550.732 1323.633 552.139 1322.814 553.599 C 1322.495 554.167 1322.389 554.855 1321.857 555.925 C 1322.065 557.557 1322.601 558.751 1323.138 559.945 Z" transform="matrix(1, 0, 0, 1, 0, -5.684341886080802e-14)"/>
  <path fill="#C35853" opacity="1.000000" stroke="none" d="M 1285.776 536.302 C 1286.055 542.222 1287.55 548.615 1282.404 553.958 C 1281.573 551.53 1280.173 548.728 1280.739 546.404 C 1281.588 542.92 1283.817 539.771 1285.776 536.302 Z" transform="matrix(1, 0, 0, 1, 0, -5.684341886080802e-14)"/>
  <path fill="#C35853" opacity="1.000000" stroke="none" d="M 1350.806 506.845 C 1348.01 507.484 1344.922 507.846 1341.457 508.151 C 1343.681 504.223 1347.292 506.596 1350.806 506.845 Z" transform="matrix(1, 0, 0, 1, 0, -5.684341886080802e-14)"/>
  <path fill="#C35853" opacity="1.000000" stroke="none" d="M 1280.843 560.338 C 1281.257 561.306 1281.423 562.494 1281.338 563.901 C 1280.922 562.932 1280.759 561.745 1280.843 560.338 Z" transform="matrix(1, 0, 0, 1, 0, -5.684341886080802e-14)"/>
  <path fill="#C35853" opacity="1.000000" stroke="none" d="M 1337.927 507.858 C 1337.464 507.958 1336.819 507.83 1336.137 507.417 C 1336.648 507.298 1337.197 507.463 1337.927 507.858 Z" transform="matrix(1, 0, 0, 1, 0, -5.684341886080802e-14)"/>
  <path fill="#31100E" opacity="1.000000" stroke="none" d="M 1339.482 556.572 C 1339.843 556.473 1340.204 556.373 1341.149 556.051 C 1342.927 554.932 1344.417 554.248 1345.25 553.091 C 1346.762 550.991 1346.904 548.996 1343.536 548.506 C 1342.626 548.373 1341.727 548.158 1340.824 547.98 C 1341.304 546.4 1341.529 544.671 1342.343 543.287 C 1343.029 542.12 1344.301 540.84 1345.502 540.613 C 1346.174 540.486 1347.448 542.282 1348.079 543.418 C 1351.441 549.47 1353.989 556.222 1361.994 557.839 C 1362.994 558.041 1363.838 559.011 1364.607 560.736 C 1361 560.736 1357.367 560.476 1353.795 560.83 C 1351.528 561.056 1348.802 561.602 1347.246 563.045 C 1343.556 566.468 1344.241 569.758 1348.736 573.678 C 1345.536 574.933 1345.656 574.756 1339.137 570.336 C 1336.202 568.346 1332.679 567.222 1329.289 565.076 C 1332.32 563.686 1335.497 562.972 1338.641 562.132 C 1339.463 561.913 1340.182 561.306 1340.948 560.877 C 1340.326 560.281 1339.704 559.684 1339.094 559.103 C 1339.106 559.118 1339.136 559.143 1339.125 558.814 C 1339.236 557.848 1339.359 557.21 1339.482 556.572 Z" transform="matrix(1, 0, 0, 1, 0, -5.684341886080802e-14)"/>
  <path fill="#964033" opacity="1.000000" stroke="none" d="M 1339.122 556.417 C 1339.359 557.21 1339.236 557.848 1338.984 558.846 C 1338.931 559.166 1339.006 559.127 1339.082 559.088 C 1339.704 559.684 1340.326 560.281 1340.948 560.877 C 1340.182 561.306 1339.463 561.913 1338.641 562.132 C 1335.497 562.972 1332.32 563.686 1329.049 564.823 C 1327.977 563.815 1327.011 562.431 1326.433 560.606 C 1328.91 559.615 1332.418 561.359 1332.092 556.905 C 1332.237 555.835 1332.382 554.764 1332.627 552.948 C 1334.994 554.227 1336.878 555.245 1339.122 556.417 Z" transform="matrix(1, 0, 0, 1, 0, -5.684341886080802e-14)"/>
  <path fill="#84382A" opacity="1.000000" stroke="none" d="M 1340.496 548.1 C 1341.727 548.158 1342.626 548.373 1343.536 548.506 C 1346.904 548.996 1346.762 550.991 1345.25 553.091 C 1344.417 554.248 1342.927 554.932 1341.411 555.949 C 1340.781 553.453 1340.474 550.837 1340.496 548.1 Z" transform="matrix(1, 0, 0, 1, 0, -5.684341886080802e-14)"/>
  <path fill="#632421" opacity="1.000000" stroke="none" d="M 1331.654 556.938 C 1332.418 561.359 1328.91 559.615 1326.394 560.247 C 1325.26 560.23 1324.553 560.131 1323.492 559.988 C 1322.601 558.751 1322.065 557.557 1321.812 556.313 C 1325.135 556.499 1328.175 556.735 1331.654 556.938 Z" transform="matrix(1, 0, 0, 1, 0, -5.684341886080802e-14)"/>
  <path fill="#31100E" opacity="1.000000" stroke="none" d="M 1339.094 559.103 C 1339.006 559.127 1338.931 559.166 1338.996 559.174 C 1339.136 559.143 1339.106 559.118 1339.094 559.103 Z" transform="matrix(1, 0, 0, 1, 0, -5.684341886080802e-14)"/>
</svg>
