<?xml version="1.0" encoding="utf-8"?>
<svg viewBox="878.3972 277.9279 129.6446 148.9693" xmlns="http://www.w3.org/2000/svg">
  <path fill="#EEF1F1" opacity="1.000000" stroke="none" d=" M934.000000,399.001221 C933.418701,397.862488 932.837402,396.723755 931.964661,394.984497 C928.781128,391.477203 928.278015,386.963348 923.744446,384.877869 C919.725220,383.028992 916.449219,379.384644 913.136902,376.226807 C909.477844,372.738373 903.397766,373.477020 901.002441,378.001221 C900.882446,378.311371 900.689941,378.566864 899.791321,378.884338 C889.895752,382.884277 888.102173,373.909882 883.119141,369.581360 C885.722900,365.539093 888.364502,361.438141 891.355347,357.148376 C894.518372,356.263092 897.315735,355.075806 900.149841,354.980347 C904.907898,354.820038 905.472168,354.361664 904.127197,349.176422 C897.765198,349.050354 892.788025,351.570312 888.912354,357.040710 C887.754456,356.659882 886.916870,356.156586 886.079224,355.653290 C889.799011,351.883759 892.907227,346.795441 897.407349,344.708618 C902.085388,342.539246 903.385803,343.188782 900.527344,338.357849 C896.418030,331.413086 891.311035,325.065643 886.875977,318.301941 C885.689392,316.492279 884.173828,313.339996 884.930725,312.115204 C886.961182,308.829773 890.008057,304.822174 894.424561,306.257904 C902.519470,308.889496 909.151367,301.718842 916.983398,303.665710 C917.548645,303.806244 918.578186,302.221161 919.342529,301.392883 C921.910522,298.609955 924.026855,295.118225 927.121033,293.188202 C930.835388,290.871216 933.041504,288.068298 933.997559,284.000000 C934.308289,283.879852 934.564392,283.687134 935.272827,283.156006 C937.902100,282.539429 940.024353,282.188690 942.630920,281.757904 C942.347290,283.787415 942.177307,285.003815 941.659790,286.317200 C937.016724,288.733337 936.817627,290.107910 939.985840,295.114685 C939.878784,295.724884 939.874634,296.083252 939.468994,296.603821 C929.932068,297.016479 929.729675,297.192719 928.403931,305.972260 C928.354736,306.298340 928.230286,306.613037 927.840088,306.938232 C927.007874,307.693878 926.476501,308.444336 925.543457,309.067993 C920.260498,309.496399 919.635986,311.096985 922.118408,317.117920 C921.808655,319.124695 921.490723,320.724487 920.945068,322.102173 C919.165161,321.127899 917.347778,319.496002 916.132568,319.862274 C914.824158,320.256622 914.080200,322.523712 912.800903,324.181335 C911.176270,325.184967 909.840759,325.981049 908.587524,326.347534 C909.029175,322.522491 907.065247,318.644226 911.038513,316.049591 C912.051392,316.160706 912.769287,316.160706 913.487244,316.160706 C913.482605,315.894501 913.477966,315.628296 913.473328,315.362122 C912.699219,315.241150 911.925049,315.120178 911.047607,314.695801 C910.296692,313.572693 909.649048,312.753021 908.996643,311.608215 C908.589539,310.683594 908.187195,310.084045 907.784790,309.484497 C907.520508,310.223602 907.256226,310.962646 906.652588,311.942841 C905.885010,313.648560 904.849243,315.252228 905.146423,316.550842 C905.930908,319.978821 904.962646,321.074463 901.523315,320.598846 C899.123657,320.266968 896.765259,320.491089 896.858887,324.126465 C896.635925,324.676117 896.629944,325.069305 896.624023,325.462524 C897.098389,325.269836 897.572754,325.077118 898.437683,324.896240 C900.960022,325.389130 903.091736,325.870148 905.194824,326.788635 C905.515869,328.332520 905.865479,329.438934 906.108765,330.893555 C904.220337,335.912476 905.242249,337.484314 909.773438,337.631134 C910.646606,337.659424 911.475098,339.066986 912.048462,340.069580 C912.833557,340.652740 913.894409,341.004608 914.997681,341.372131 C915.040161,341.387817 915.130554,341.384308 915.093628,341.829773 C916.670227,344.331116 918.283691,346.387024 919.803345,348.674194 C919.520569,349.196686 919.261597,349.397949 918.538330,349.403687 C917.426941,350.440887 916.709839,351.583618 915.654419,352.932495 C914.274048,353.277283 913.231934,353.415955 912.025635,353.228394 C910.604004,352.494385 909.346619,352.086609 908.089233,351.678833 C908.023376,352.857788 907.753418,354.072571 907.952393,355.204987 C908.130737,356.220428 908.825195,357.145172 909.263550,358.498535 C907.728455,359.677216 906.268250,360.577576 904.706055,361.236206 C900.357483,363.069672 895.815491,364.521515 891.680847,366.740784 C890.377563,367.440369 890.121033,370.090240 889.385376,371.847473 C891.341003,372.020996 893.329895,372.472717 895.237183,372.243713 C896.113708,372.138489 896.829895,370.698303 897.956787,369.880768 C898.864197,369.595642 899.433655,369.293182 900.381104,368.938934 C906.487305,366.775848 912.233154,364.690582 915.855835,359.420349 C921.781006,360.474213 919.337708,356.157227 920.271362,353.553436 C922.076233,352.591614 923.591858,351.798798 925.458862,351.015961 C926.964294,351.716400 928.118408,352.406860 929.327087,353.509216 C929.145630,355.278717 928.909546,356.636261 928.384888,358.066101 C928.272888,359.094879 928.449585,360.051422 928.748779,361.328979 C928.898315,362.105530 928.925293,362.561035 928.744812,363.231750 C929.184509,363.909973 929.831787,364.373016 930.799072,364.857361 C931.969238,364.878296 932.819214,364.877899 934.034241,364.914124 C938.795044,365.632751 935.720642,367.282104 934.902649,368.687042 C933.532471,371.040405 931.019592,373.774445 936.384521,374.469788 C935.112183,375.717499 933.470520,376.394592 932.908997,377.582336 C931.848328,379.826019 930.911682,382.380951 930.996399,384.768463 C931.023926,385.543549 934.357849,386.600311 936.255066,386.796753 C938.116028,386.989380 940.073303,386.251801 942.055908,386.329712 C941.467834,390.474396 940.812134,394.211792 939.792969,398.099854 C937.619629,398.500702 935.809814,398.750977 934.000000,399.001221 M920.362671,365.035248 C918.324768,366.403015 915.594421,367.700317 917.329224,370.722565 C918.963623,373.569946 921.257629,376.038696 923.867493,379.471130 C924.591980,373.890320 927.217896,369.179626 922.896484,364.155823 C922.261658,364.322144 921.626770,364.488464 920.362671,365.035248 M892.666992,310.039764 C891.867432,312.361725 891.067871,314.683685 890.268311,317.005646 C891.342285,317.069000 892.639282,317.550690 893.449402,317.118927 C896.096130,315.708191 898.806213,314.104340 897.661438,310.279816 C897.575439,309.992584 897.304260,309.760773 896.971619,309.297882 C895.803406,309.353302 894.506714,309.414795 892.666992,310.039764 z" transform="matrix(1, 0, 0, 1, 1.1368683772161603e-13, 0)"/>
  <path fill="#EEF1F1" opacity="1.000000" stroke="none" d=" M1001.997559,310.001221 C1001.998352,310.750916 1001.999207,311.500610 1001.660034,312.690918 C999.025330,315.421478 996.719788,317.700653 994.439819,320.005188 C992.946411,321.514648 990.794495,322.833832 990.201721,324.650696 C989.532410,326.701904 990.139832,329.235901 990.473511,331.518799 C990.627930,332.574738 991.450378,333.533051 991.919922,334.439270 C989.731689,337.215057 987.720581,339.766083 985.175842,342.994110 C985.529358,343.186859 986.454651,343.409027 986.928833,343.995697 C990.105042,347.925537 993.514221,351.736328 996.087280,356.040405 C996.817383,357.261719 995.019531,359.994354 994.380981,362.033875 C993.588684,361.722260 992.796387,361.410645 992.261230,360.918762 C992.346069,359.144653 992.173767,357.550812 991.924805,355.610687 C989.181335,353.527069 986.514587,351.789734 983.519043,349.891052 C981.160400,349.322205 979.146912,348.739471 977.096802,348.546326 C973.626770,348.219391 972.274048,349.814423 973.346436,353.678406 C973.722717,354.846405 974.150085,355.573029 974.350281,356.629028 C975.056091,359.196289 976.828064,361.463470 976.751160,363.666138 C976.579956,368.573303 978.463806,369.958374 982.956787,369.130768 C983.862610,374.144714 983.862610,374.144714 986.565125,372.590454 C988.618958,373.110077 990.309082,373.531677 992.047119,374.275787 C995.436157,378.054657 991.773865,379.220367 990.000061,381.003723 C988.933533,381.002838 987.866943,381.001953 986.232483,380.696167 C980.885132,379.046997 976.863708,371.354614 971.022705,378.643677 C970.783936,378.941620 970.007446,378.746643 969.616150,378.994202 C967.073303,380.602783 963.936157,381.771881 962.168152,384.011902 C956.824707,390.782166 952.017334,397.975586 946.626343,405.003845 C945.502319,405.006866 944.753113,405.010132 943.653748,404.966370 C940.222839,403.771362 939.352783,401.797577 941.389160,398.870392 C942.865601,398.766663 943.995789,398.659973 945.546631,398.635773 C946.589600,397.978851 947.211914,397.239410 947.972412,396.211670 C948.513000,394.972473 948.915283,394.021576 949.581543,393.059326 C950.223877,392.710449 950.602112,392.372894 950.986206,391.661438 C951.000305,390.540955 951.008484,389.794342 951.013000,388.905212 C951.050659,388.419739 950.929077,388.196716 950.920654,387.860718 C952.226990,385.304565 953.257263,382.981201 954.514771,380.364655 C957.677124,376.501068 960.612183,372.930695 963.917480,369.459656 C969.052795,369.464111 969.932190,367.154297 967.918274,362.842285 C966.912598,360.985596 965.904602,359.480530 964.920532,357.530762 C964.966309,356.754669 965.024841,356.420929 965.004333,356.092133 C964.678772,350.869812 964.183960,345.648071 971.232178,344.104950 C971.864746,343.966461 971.997192,341.543793 972.806335,340.080078 C973.718750,339.014862 974.186768,338.051483 974.993408,336.916443 C978.908020,336.324432 982.483948,335.904053 987.904297,335.266846 C984.886780,332.812683 982.947632,331.235596 980.930298,329.363983 C979.900085,329.315582 978.948059,329.561707 977.705566,330.050690 C974.291626,332.189636 971.168274,334.085724 967.784302,335.981689 C967.002502,335.982452 966.481323,335.983368 965.963989,335.546234 C965.953430,333.351318 965.938965,331.594452 966.064941,329.564209 C967.130737,328.510071 968.056091,327.729279 969.127441,327.267883 C970.411743,328.469727 971.550110,329.352203 972.688477,330.234650 C972.975403,329.914429 973.262390,329.594238 973.549316,329.274017 C972.971191,327.670502 972.393066,326.066956 971.992920,324.229553 C972.764526,323.258850 973.358154,322.522034 974.211060,322.010986 C978.762939,325.597961 978.762939,325.597961 983.734619,318.977966 C979.018250,313.764557 977.935608,313.794830 973.335327,319.536560 C968.925232,321.134247 963.559265,320.704590 962.763916,327.035034 C961.968628,327.585022 961.470276,328.112488 960.693726,328.822205 C959.265198,329.999420 958.114990,330.994324 956.536194,331.989136 C952.659729,332.520203 949.935913,331.755219 948.883728,327.612457 C951.305359,324.670715 953.745972,322.080505 956.464294,319.315735 C956.983215,318.776764 957.224365,318.412384 957.729736,318.033386 C958.334473,317.645325 958.674988,317.271912 959.385498,316.869141 C962.684570,314.516235 965.613647,312.192749 969.493286,309.115173 C959.863831,307.118225 957.093445,309.144135 956.926514,316.522522 C956.962341,316.499023 957.006104,316.425293 956.722168,316.466064 C956.294434,316.632935 956.150635,316.759033 955.590210,316.837708 C952.473022,317.271606 949.772461,317.752930 946.979858,317.973633 C946.590393,317.501831 946.292969,317.290680 945.966125,316.765106 C945.591492,315.954865 945.246277,315.459045 944.936218,314.621613 C945.142822,313.856812 945.314209,313.433624 945.724487,312.946259 C945.783936,312.251190 945.604614,311.620300 945.273438,310.751587 C945.086853,310.328918 945.052063,310.144043 945.107422,309.731171 C945.197449,309.503143 945.265442,309.017548 945.494507,308.991211 C945.723572,308.964905 946.178467,308.888824 946.514282,308.908997 C947.896484,308.298553 948.942871,307.667908 950.313354,306.889160 C951.252808,306.014343 952.156860,305.383575 952.435486,304.544983 C954.003113,299.826263 951.439880,297.416412 944.089478,296.241394 C943.974731,295.483307 943.867432,295.056091 943.925415,294.316315 C943.522156,291.434418 942.953674,288.865082 942.704590,286.124847 C946.588745,282.434448 948.096985,285.584564 948.991028,288.183899 C951.493530,295.460541 957.899170,297.826508 963.901672,300.829529 C966.489014,302.123932 969.406128,303.168213 971.421692,305.107452 C975.121399,308.667145 978.723999,308.826599 983.062012,306.660797 C984.906006,305.740173 987.109375,305.546509 989.142212,304.995697 C994.664001,303.499420 997.749268,308.239746 1001.997559,310.001221 M985.915222,313.525177 C986.866699,314.633667 988.197205,316.831726 988.702026,316.656097 C990.576599,316.004028 992.481750,314.809113 993.690002,313.277374 C994.028320,312.848480 992.333374,309.900726 991.012878,309.261047 C987.871765,307.739563 986.387207,309.765533 985.915222,313.525177 z" transform="matrix(1, 0, 0, 1, 1.1368683772161603e-13, 0)"/>
  <path fill="#EBEDED" opacity="1.000000" stroke="none" d=" M947.001038,405.004059 C952.017334,397.975586 956.824707,390.782166 962.168152,384.011902 C963.936157,381.771881 967.073303,380.602783 969.616150,378.994202 C970.007446,378.746643 970.783936,378.941620 971.022705,378.643677 C976.863708,371.354614 980.885132,379.046997 985.832275,380.696533 C983.933350,381.202576 981.866638,381.403320 979.799988,381.604095 C979.593689,381.066376 979.387390,380.528625 979.181091,379.990906 C978.449707,381.169220 977.753784,382.371429 976.979797,383.521149 C975.125977,386.275024 976.143005,387.924866 979.082275,388.473358 C982.631165,389.135590 986.252686,389.408417 989.801636,390.070221 C990.899536,390.274902 992.422058,390.990295 992.743347,391.848724 C993.124878,392.867981 992.783081,395.045074 992.103821,395.373291 C990.992249,395.910339 989.258240,395.636810 987.966492,395.188049 C986.685608,394.743011 985.626648,393.658875 983.878662,392.443665 C983.136414,394.979004 982.344971,396.775208 982.129578,398.638062 C981.831787,401.214294 981.618835,403.146820 978.054260,402.545532 C977.272217,402.413574 976.039062,404.955383 975.006836,406.632935 C971.775208,406.879822 971.241821,409.083252 971.011353,411.584351 C970.100098,421.471008 967.814758,423.008881 956.167664,419.720367 C956.959412,419.485992 958.063843,419.495819 958.477600,418.966064 C959.323975,417.882690 959.799255,416.509338 960.427368,415.255371 C958.664612,415.169434 956.140198,414.294647 955.270874,415.134064 C951.492249,418.782562 948.195923,422.930603 944.724365,426.897186 C944.004517,426.606750 943.284668,426.316315 942.564819,426.025879 C942.122803,424.064026 941.680786,422.102173 941.073364,419.406372 C937.358826,418.200623 931.533813,417.876678 932.442444,410.591431 C934.898193,409.080627 938.831360,415.013428 940.261841,410.020599 C938.037537,406.309540 936.062439,403.014374 934.043701,399.360199 C935.809814,398.750977 937.619629,398.500702 940.024231,398.154785 C940.917725,398.245972 941.059021,398.515411 941.042908,398.867432 C939.352783,401.797577 940.222839,403.771362 943.660400,405.339722 C946.076782,409.607178 946.614807,413.301483 941.883728,416.200500 C946.942993,418.099457 948.720032,415.837677 948.783081,412.423187 C948.828430,409.961975 947.639404,407.477936 947.001038,405.004059 z" transform="matrix(1, 0, 0, 1, 1.1368683772161603e-13, 0)"/>
  <path fill="#EBEDED" opacity="1.000000" stroke="none" d=" M891.006104,357.337189 C888.364502,361.438141 885.722900,365.539093 883.119141,369.581360 C888.102173,373.909882 889.895752,382.884277 899.578857,379.001099 C895.465576,380.183563 890.944092,381.423187 886.376526,382.459717 C885.920532,382.563232 884.561951,381.206146 884.670410,380.907471 C886.581299,375.644440 881.351868,373.877350 879.679260,370.405273 C876.802124,364.432739 879.008850,352.556030 883.892151,347.633606 C887.137573,344.362305 888.917480,341.839966 885.861816,336.557434 C882.821289,331.301147 883.083801,324.249786 880.863098,318.376862 C877.466248,309.393280 884.178040,305.476776 889.008057,300.870605 C891.446899,298.544800 893.917358,297.141083 890.768127,292.849731 C892.576843,293.346375 893.535706,293.314728 893.990295,293.777924 C903.247742,303.210266 914.462402,301.923981 921.760986,290.446350 C924.455994,286.208435 927.798218,283.382111 933.581360,284.000000 C933.041504,288.068298 930.835388,290.871216 927.121033,293.188202 C924.026855,295.118225 921.910522,298.609955 919.342529,301.392883 C918.578186,302.221161 917.548645,303.806244 916.983398,303.665710 C909.151367,301.718842 902.519470,308.889496 894.424561,306.257904 C890.008057,304.822174 886.961182,308.829773 884.930725,312.115204 C884.173828,313.339996 885.689392,316.492279 886.875977,318.301941 C891.311035,325.065643 896.418030,331.413086 900.527344,338.357849 C903.385803,343.188782 902.085388,342.539246 897.407349,344.708618 C892.907227,346.795441 889.799011,351.883759 886.079224,355.653290 C886.916870,356.156586 887.754456,356.659882 889.217529,357.060699 C890.230713,357.084534 890.618408,357.210846 891.006104,357.337189 z" transform="matrix(1, 0, 0, 1, 1.1368683772161603e-13, 0)"/>
  <path fill="#EBEDED" opacity="1.000000" stroke="none" d=" M992.004089,361.099060 C992.796387,361.410645 993.588684,361.722260 994.380981,362.033875 C995.019531,359.994354 996.817383,357.261719 996.087280,356.040405 C993.514221,351.736328 990.105042,347.925537 986.928833,343.995697 C986.454651,343.409027 985.529358,343.186859 985.175842,342.994110 C987.720581,339.766083 989.731689,337.215057 991.919922,334.439270 C991.450378,333.533051 990.627930,332.574738 990.473511,331.518799 C990.139832,329.235901 989.532410,326.701904 990.201721,324.650696 C990.794495,322.833832 992.946411,321.514648 994.439819,320.005188 C996.719788,317.700653 999.025330,315.421478 1001.660034,313.065765 C1008.740967,315.437775 1009.410339,317.549591 1005.717224,323.948975 C1005.025757,325.147217 1004.992981,326.708679 1004.519104,328.054260 C1004.030457,329.441711 1003.420044,330.792877 1002.764526,332.110992 C1002.561340,332.519592 1001.739136,332.739075 1001.704163,333.094696 C1001.222595,337.989838 997.042725,342.520874 1000.770020,347.903564 C1002.182556,349.943329 1002.196533,352.936401 1002.914062,355.476318 C1003.761047,358.474243 1005.230530,361.417572 1005.419250,364.447540 C1005.625671,367.762115 1005.064819,371.262817 1004.120483,374.471069 C1003.214355,377.549744 1001.388489,380.357727 999.646301,383.944458 C996.890198,383.264160 993.640381,382.462036 990.195312,381.331818 C991.773865,379.220367 995.436157,378.054657 992.251953,373.976196 C994.878357,370.069153 991.545471,369.504669 989.969482,367.729736 C989.654846,365.354004 989.326965,363.371307 989.369446,361.302307 C990.494629,361.177032 991.249329,361.138062 992.004089,361.099060 z" transform="matrix(1, 0, 0, 1, 1.1368683772161603e-13, 0)"/>
  <path fill="#EBEDED" opacity="1.000000" stroke="none" d=" M1001.991455,309.636230 C997.749268,308.239746 994.664001,303.499420 989.142212,304.995697 C987.109375,305.546509 984.906006,305.740173 983.062012,306.660797 C978.723999,308.826599 975.121399,308.667145 971.421692,305.107452 C969.406128,303.168213 966.489014,302.123932 963.901672,300.829529 C957.899170,297.826508 951.493530,295.460541 948.991028,288.183899 C948.096985,285.584564 946.588745,282.434448 942.597168,286.170837 C942.170288,286.387756 942.007263,286.220215 942.007263,286.220215 C942.177307,285.003815 942.347290,283.787415 942.630920,281.757904 C940.024353,282.188690 937.902100,282.539429 935.389893,282.943268 C935.937988,281.679321 936.629395,279.541443 937.852600,279.174011 C948.475525,275.982910 954.413208,278.796936 959.551575,289.049225 C961.286438,292.510620 973.119202,298.832764 976.975769,298.136505 C980.153625,297.562775 983.232422,296.410156 986.417664,295.922455 C987.803223,295.710327 989.940979,296.026672 990.711243,296.954529 C993.719849,300.578766 997.047974,302.542419 1002.015137,302.259979 C1003.960938,302.149323 1006.029236,304.193085 1008.041748,305.255646 C1007.788086,305.796051 1007.534363,306.336456 1007.280701,306.876862 C1005.600830,306.313049 1003.921021,305.749237 1001.589111,304.966583 C1001.741638,306.623505 1001.863464,307.947357 1001.991455,309.636230 z" transform="matrix(1, 0, 0, 1, 1.1368683772161603e-13, 0)"/>
  <path fill="#EBEDED" opacity="1.000000" stroke="none" d=" M901.369385,378.008484 C903.397766,373.477020 909.477844,372.738373 913.136902,376.226807 C916.449219,379.384644 919.725220,383.028992 923.744446,384.877869 C928.278015,386.963348 928.781128,391.477203 931.833252,394.693207 C927.227539,396.173676 923.322937,394.577942 921.080200,390.009369 C919.535706,386.863037 917.938904,385.426331 914.130737,386.619293 C911.543823,387.429688 908.489380,387.260284 905.742920,386.856476 C904.092896,386.613861 902.632935,385.078827 901.087524,384.124634 C902.000916,382.698944 902.914307,381.273254 904.249207,379.189697 C903.756531,378.959534 902.746399,378.487640 901.369385,378.008484 z" transform="matrix(1, 0, 0, 1, 1.1368683772161603e-13, 0)"/>
  <path fill="#EBEDED" opacity="1.000000" stroke="none" d=" M975.006958,407.369659 C976.659668,407.063354 978.422302,406.807800 979.943787,407.299164 C981.005615,407.642090 981.997864,408.888855 982.492981,409.973145 C982.703125,410.433380 981.695251,412.006531 981.002869,412.193787 C979.920898,412.486389 978.261597,412.451141 977.524841,411.794342 C976.387085,410.780029 975.821899,409.123505 975.006958,407.369659 z" transform="matrix(1, 0, 0, 1, 1.1368683772161603e-13, 0)"/>
  <path fill="#1F2E22" opacity="1.000000" stroke="none" d=" M954.287476,380.657837 C953.257263,382.981201 952.226990,385.304565 950.500366,387.562836 C949.498474,387.341217 949.192871,387.184662 948.877930,386.577820 C949.171936,382.543243 949.669189,378.962585 949.736511,375.373901 C949.858582,368.863525 947.050659,367.195496 940.811951,370.040985 C940.015381,370.026550 939.559998,370.025482 939.039673,369.584778 C939.157104,367.428894 939.339539,365.712616 939.848633,363.865570 C940.675720,361.631470 941.176208,359.528168 941.661804,357.079102 C940.821106,350.203613 937.009888,347.065308 932.123901,349.146088 C931.264587,349.065491 930.772217,349.032684 930.091309,348.700134 C929.921021,347.937164 929.939270,347.473938 930.228638,346.805145 C933.228760,342.622650 930.285889,343.027161 927.405029,343.009399 C923.058655,342.415070 919.094604,341.899689 915.130554,341.384308 C915.130554,341.384308 915.040161,341.387817 914.818054,341.111145 C913.838684,340.502441 913.081421,340.170349 912.324158,339.838287 C911.475098,339.066986 910.646606,337.659424 909.773438,337.631134 C905.242249,337.484314 904.220337,335.912476 906.444336,330.788879 C908.299805,331.285370 909.599915,332.546265 911.153259,333.112335 C913.596924,334.002808 916.210938,334.425476 918.752869,335.046204 C919.227356,332.527802 919.730164,330.014099 920.149597,327.486542 C920.223389,327.041565 919.948364,326.538727 920.291626,326.029907 C921.356995,325.935150 921.965149,325.873077 922.898804,325.882629 C924.184998,326.816864 925.145813,327.679504 926.095215,328.697052 C926.085938,329.180603 926.187073,329.474365 926.528687,329.959961 C926.544922,330.866974 926.419739,331.547272 926.234741,332.583557 C926.825806,333.177612 927.476746,333.415680 928.500549,333.480042 C929.948120,334.574768 930.975220,335.887817 932.109802,337.100311 C933.499390,338.585388 934.766174,340.861694 936.456482,341.272705 C943.973328,343.100555 947.710388,341.152985 951.665527,335.281372 C953.431946,334.183990 955.198303,333.086578 956.964722,331.989197 C958.114990,330.994324 959.265198,329.999420 960.976807,329.091064 C963.839355,330.921722 964.928711,333.075256 963.571777,336.170624 C962.280334,338.241272 961.249329,340.108643 959.955322,342.214050 C955.754211,345.816254 951.674194,349.034790 947.972473,352.641632 C946.981812,353.606903 946.921204,355.743683 946.820557,357.366577 C946.442932,363.458984 949.692932,367.821655 953.934814,371.999939 C954.044800,375.121063 954.166138,377.889465 954.287476,380.657837 z" transform="matrix(1, 0, 0, 1, 1.1368683772161603e-13, 0)"/>
  <path fill="#1D1E1D" opacity="1.000000" stroke="none" d=" M915.499573,358.933502 C912.233154,364.690582 906.487305,366.775848 900.225464,368.595673 C899.000916,368.823944 898.309814,369.343689 897.618774,369.863434 C896.829895,370.698303 896.113708,372.138489 895.237183,372.243713 C893.329895,372.472717 891.341003,372.020996 889.385376,371.847473 C890.121033,370.090240 890.377563,367.440369 891.680847,366.740784 C895.815491,364.521515 900.357483,363.069672 904.706055,361.236206 C906.268250,360.577576 907.728455,359.677216 909.491699,358.284637 C910.562073,356.306274 911.375977,354.930450 912.189880,353.554626 C913.231934,353.415955 914.274048,353.277283 915.893066,352.982605 C916.470032,352.826569 916.957825,352.822418 917.052551,353.286255 C917.236816,354.052673 917.326416,354.355286 917.343933,354.970917 C916.681152,356.500458 916.090393,357.716980 915.499573,358.933502 z" transform="matrix(1, 0, 0, 1, 1.1368683772161603e-13, 0)"/>
  <path fill="#EBEDED" opacity="1.000000" stroke="none" d=" M926.106567,328.542145 C925.145813,327.679504 924.184998,326.816864 922.726135,325.540283 C921.876282,324.192322 921.524536,323.258301 921.172729,322.324280 C921.490723,320.724487 921.808655,319.124695 922.483521,317.250153 C927.376526,316.270691 928.376831,314.390808 926.888306,310.049377 C927.890869,309.194489 928.495300,308.407013 929.495239,307.685120 C931.447327,307.717010 933.003845,307.683289 934.806885,307.834778 C935.587280,308.316986 936.121216,308.613983 936.752075,309.324249 C937.302246,311.919830 937.755432,314.102173 938.249329,316.480591 C932.709106,317.428223 930.962585,321.644623 929.048157,325.895142 C928.724609,326.119781 928.696045,326.314331 928.370239,326.879578 C927.320129,327.666595 926.713379,328.104370 926.106567,328.542145 z" transform="matrix(1, 0, 0, 1, 1.1368683772161603e-13, 0)"/>
  <path fill="#252926" opacity="1.000000" stroke="none" d=" M934.560364,307.649597 C933.003845,307.683289 931.447327,307.717010 929.320740,307.422546 C928.547424,307.040588 928.344177,306.986816 928.140930,306.933044 C928.230286,306.613037 928.354736,306.298340 928.403931,305.972260 C929.729675,297.192719 929.932068,297.016479 939.888550,296.699219 C941.838684,296.612366 942.967712,296.592285 944.096802,296.572205 C951.439880,297.416412 954.003113,299.826263 952.435486,304.544983 C952.156860,305.383575 951.252808,306.014343 950.274048,306.516174 C947.374573,298.764252 941.605652,298.923187 933.944946,303.095734 C934.153931,304.642395 934.357178,306.145996 934.560364,307.649597 z" transform="matrix(1, 0, 0, 1, 1.1368683772161603e-13, 0)"/>
  <path fill="#252926" opacity="1.000000" stroke="none" d=" M905.223511,326.351135 C903.091736,325.870148 900.960022,325.389130 898.375488,324.659668 C897.706421,324.137421 897.424133,323.990387 897.075867,323.970062 C896.765259,320.491089 899.123657,320.266968 901.523315,320.598846 C904.962646,321.074463 905.930908,319.978821 905.146423,316.550842 C904.849243,315.252228 905.885010,313.648560 906.977051,312.057556 C908.094421,311.931885 908.547913,311.932617 909.001465,311.933350 C909.649048,312.753021 910.296692,313.572693 910.873901,314.899414 C910.783447,315.583832 910.763489,315.761169 910.743591,315.938477 C907.065247,318.644226 909.029175,322.522491 908.249207,326.368774 C906.960266,326.663452 906.091858,326.507294 905.223511,326.351135 z" transform="matrix(1, 0, 0, 1, 1.1368683772161603e-13, 0)"/>
  <path fill="#252926" opacity="1.000000" stroke="none" d=" M941.676697,357.424866 C941.176208,359.528168 940.675720,361.631470 939.645142,363.502258 C937.299805,363.805664 935.484497,364.341583 933.669250,364.877502 C932.819214,364.877899 931.969238,364.878296 930.692871,364.568817 C929.828491,363.844818 929.390381,363.430695 928.952332,363.016571 C928.925293,362.561035 928.898315,362.105530 928.852051,360.960388 C928.779663,359.511810 928.726501,358.752808 928.673462,357.993835 C928.909546,356.636261 929.145630,355.278717 929.541016,353.222107 C929.893494,351.348694 930.086670,350.174316 930.279907,348.999908 C930.772217,349.032684 931.264587,349.065491 932.062744,349.512726 C932.945679,355.973175 936.517700,358.850372 941.676697,357.424866 z" transform="matrix(1, 0, 0, 1, 1.1368683772161603e-13, 0)"/>
  <path fill="#252926" opacity="1.000000" stroke="none" d=" M939.104614,370.024414 C939.559998,370.025482 940.015381,370.026550 940.687256,370.383606 C939.583740,373.162567 938.263794,375.585480 937.127808,377.670624 C938.778564,380.536499 940.374023,383.306244 941.945251,386.034058 C941.921021,385.992157 941.988281,385.922485 941.988281,385.922485 C940.073303,386.251801 938.116028,386.989380 936.255066,386.796753 C934.357849,386.600311 931.023926,385.543549 930.996399,384.768463 C930.911682,382.380951 931.848328,379.826019 932.908997,377.582336 C933.470520,376.394592 935.112183,375.717499 936.583984,374.240784 C937.636108,372.455933 938.370361,371.240173 939.104614,370.024414 z" transform="matrix(1, 0, 0, 1, 1.1368683772161603e-13, 0)"/>
  <path fill="#EBEDED" opacity="1.000000" stroke="none" d=" M905.194824,326.788635 C906.091858,326.507294 906.960266,326.663452 908.166870,326.798370 C909.840759,325.981049 911.176270,325.184967 913.125732,324.327759 C915.771301,324.865265 917.802917,325.463928 919.834473,326.062592 C919.948364,326.538727 920.223389,327.041565 920.149597,327.486542 C919.730164,330.014099 919.227356,332.527802 918.752869,335.046204 C916.210938,334.425476 913.596924,334.002808 911.153259,333.112335 C909.599915,332.546265 908.299805,331.285370 906.550598,330.440735 C905.865479,329.438934 905.515869,328.332520 905.194824,326.788635 z" transform="matrix(1, 0, 0, 1, 1.1368683772161603e-13, 0)"/>
  <path fill="#1D1E1D" opacity="1.000000" stroke="none" d=" M941.389160,398.870392 C941.059021,398.515411 940.917725,398.245972 940.387695,398.004150 C940.812134,394.211792 941.467834,390.474396 942.055908,386.329742 C941.988281,385.922485 941.921021,385.992157 942.286377,386.053314 C944.077393,387.166504 945.503052,388.218536 946.954956,389.497284 C947.168335,390.019348 947.433105,390.131409 947.926575,390.310822 C948.422424,391.032349 948.767212,391.503235 949.078369,392.264191 C949.135620,392.726379 949.226562,392.898499 949.317566,393.070648 C948.915283,394.021576 948.513000,394.972473 947.659302,396.354553 C946.513977,397.374939 945.820007,397.964111 945.126038,398.553284 C943.995789,398.659973 942.865601,398.766663 941.389160,398.870392 z" transform="matrix(1, 0, 0, 1, 1.1368683772161603e-13, 0)"/>
  <path fill="#1D1E1D" opacity="1.000000" stroke="none" d=" M923.007751,364.660767 C927.217896,369.179626 924.591980,373.890320 923.867493,379.471130 C921.257629,376.038696 918.963623,373.569946 917.329224,370.722565 C915.594421,367.700317 918.324768,366.403015 921.009460,364.925903 C922.106750,364.764587 922.557251,364.712677 923.007751,364.660767 z" transform="matrix(1, 0, 0, 1, 1.1368683772161603e-13, 0)"/>
  <path fill="#EBEDED" opacity="1.000000" stroke="none" d=" M930.091309,348.700134 C930.086670,350.174316 929.893494,351.348694 929.486328,352.810211 C928.118408,352.406860 926.964294,351.716400 925.423096,350.642273 C924.686951,349.128052 924.338013,347.997498 923.940308,346.708832 C922.237732,347.439056 921.067444,347.940979 919.897095,348.442932 C918.283691,346.387024 916.670227,344.331116 915.093628,341.829773 C919.094604,341.899689 923.058655,342.415070 927.479492,343.325226 C928.610107,344.816895 929.283813,345.913818 929.957581,347.010712 C929.939270,347.473938 929.921021,347.937164 930.091309,348.700134 z" transform="matrix(1, 0, 0, 1, 1.1368683772161603e-13, 0)"/>
  <path fill="#3A5144" opacity="1.000000" stroke="none" d=" M891.355347,357.148376 C890.618408,357.210846 890.230713,357.084534 889.537781,356.938202 C892.788025,351.570312 897.765198,349.050354 904.127197,349.176422 C905.472168,354.361664 904.907898,354.820038 900.149841,354.980347 C897.315735,355.075806 894.518372,356.263092 891.355347,357.148376 z" transform="matrix(1, 0, 0, 1, 1.1368683772161603e-13, 0)"/>
  <path fill="#252926" opacity="1.000000" stroke="none" d=" M892.938538,309.758026 C894.506714,309.414795 895.803406,309.353302 896.971619,309.297882 C897.304260,309.760773 897.575439,309.992584 897.661438,310.279816 C898.806213,314.104340 896.096130,315.708191 893.449402,317.118927 C892.639282,317.550690 891.342285,317.069000 890.268311,317.005646 C891.067871,314.683685 891.867432,312.361725 892.938538,309.758026 z" transform="matrix(1, 0, 0, 1, 1.1368683772161603e-13, 0)"/>
  <path fill="#252926" opacity="1.000000" stroke="none" d=" M941.659790,286.317200 C942.007263,286.220215 942.170288,286.387756 942.277710,286.341736 C942.953674,288.865082 943.522156,291.434418 943.557983,294.356140 C942.046387,294.760010 941.067566,294.811432 940.088684,294.862854 C936.817627,290.107910 937.016724,288.733337 941.659790,286.317200 z" transform="matrix(1, 0, 0, 1, 1.1368683772161603e-13, 0)"/>
  <path fill="#252926" opacity="1.000000" stroke="none" d=" M920.291626,326.029907 C917.802917,325.463928 915.771301,324.865265 913.414856,324.120178 C914.080200,322.523712 914.824158,320.256622 916.132568,319.862274 C917.347778,319.496002 919.165161,321.127899 920.945068,322.102173 C921.524536,323.258301 921.876282,324.192322 922.400635,325.468689 C921.965149,325.873077 921.356995,325.935150 920.291626,326.029907 z" transform="matrix(1, 0, 0, 1, 1.1368683772161603e-13, 0)"/>
  <path fill="#1D1E1D" opacity="1.000000" stroke="none" d=" M926.490051,310.116791 C928.376831,314.390808 927.376526,316.270691 922.475342,316.843201 C919.635986,311.096985 920.260498,309.496399 925.515625,309.273132 C925.981506,309.902466 926.181702,310.073059 926.490051,310.116791 z" transform="matrix(1, 0, 0, 1, 1.1368683772161603e-13, 0)"/>
  <path fill="#253F2D" opacity="1.000000" stroke="none" d=" M919.803345,348.674164 C921.067444,347.940979 922.237732,347.439056 923.940308,346.708832 C924.338013,347.997498 924.686951,349.128052 925.071655,350.632324 C923.591858,351.798798 922.076233,352.591614 919.919373,353.524414 C918.657410,353.995575 918.036682,354.326752 917.415955,354.657898 C917.326416,354.355286 917.236816,354.052673 917.161316,352.977081 C917.761108,351.305817 918.346924,350.407501 918.932678,349.509216 C919.261597,349.397949 919.520569,349.196686 919.803345,348.674164 z" transform="matrix(1, 0, 0, 1, 1.1368683772161603e-13, 0)"/>
  <path fill="#EBEDED" opacity="1.000000" stroke="none" d=" M939.039673,369.584778 C938.370361,371.240173 937.636108,372.455933 936.702393,373.900696 C931.019592,373.774445 933.532471,371.040405 934.902649,368.687042 C935.720642,367.282104 938.795044,365.632751 934.034241,364.914124 C935.484497,364.341583 937.299805,363.805664 939.318542,363.633057 C939.339539,365.712616 939.157104,367.428894 939.039673,369.584778 z" transform="matrix(1, 0, 0, 1, 1.1368683772161603e-13, 0)"/>
  <path fill="#EBEDED" opacity="1.000000" stroke="none" d=" M917.343933,354.970917 C918.036682,354.326752 918.657410,353.995575 919.630127,353.693451 C919.337708,356.157227 921.781006,360.474213 915.855835,359.420349 C916.090393,357.716980 916.681152,356.500458 917.343933,354.970917 z" transform="matrix(1, 0, 0, 1, 1.1368683772161603e-13, 0)"/>
  <path fill="#EBEDED" opacity="1.000000" stroke="none" d=" M912.025635,353.228394 C911.375977,354.930450 910.562073,356.306274 909.520081,357.895996 C908.825195,357.145172 908.130737,356.220428 907.952393,355.204987 C907.753418,354.072571 908.023376,352.857788 908.089233,351.678833 C909.346619,352.086609 910.604004,352.494385 912.025635,353.228394 z" transform="matrix(1, 0, 0, 1, 1.1368683772161603e-13, 0)"/>
  <path fill="#D3D4D1" opacity="1.000000" stroke="none" d=" M926.888306,310.049377 C926.181702,310.073059 925.981506,309.902466 925.917236,309.399902 C926.476501,308.444336 927.007874,307.693878 927.840088,306.938232 C928.344177,306.986816 928.547424,307.040588 928.925171,307.356964 C928.495300,308.407013 927.890869,309.194489 926.888306,310.049377 z" transform="matrix(1, 0, 0, 1, 1.1368683772161603e-13, 0)"/>
  <path fill="#C7C8C3" opacity="1.000000" stroke="none" d=" M939.985840,295.114685 C941.067566,294.811432 942.046387,294.760010 943.392700,294.668701 C943.867432,295.056091 943.974731,295.483307 944.089478,296.241394 C942.967712,296.592285 941.838684,296.612366 940.290039,296.537048 C939.874634,296.083252 939.878784,295.724884 939.985840,295.114685 z" transform="matrix(1, 0, 0, 1, 1.1368683772161603e-13, 0)"/>
  <path fill="#EBEDED" opacity="1.000000" stroke="none" d=" M918.538330,349.403687 C918.346924,350.407501 917.761108,351.305817 917.066589,352.513245 C916.957825,352.822418 916.470032,352.826569 916.231323,352.776459 C916.709839,351.583618 917.426941,350.440887 918.538330,349.403687 z" transform="matrix(1, 0, 0, 1, 1.1368683772161603e-13, 0)"/>
  <path fill="#EBEDED" opacity="1.000000" stroke="none" d=" M912.048462,340.069580 C913.081421,340.170349 913.838684,340.502441 914.775635,341.095459 C913.894409,341.004608 912.833557,340.652740 912.048462,340.069580 z" transform="matrix(1, 0, 0, 1, 1.1368683772161603e-13, 0)"/>
  <path fill="#EBEDED" opacity="1.000000" stroke="none" d=" M928.384827,358.066101 C928.726501,358.752808 928.779663,359.511810 928.729492,360.639343 C928.449585,360.051422 928.272888,359.094879 928.384827,358.066101 z" transform="matrix(1, 0, 0, 1, 1.1368683772161603e-13, 0)"/>
  <path fill="#EBEDED" opacity="1.000000" stroke="none" d=" M908.996704,311.608215 C908.547913,311.932617 908.094421,311.931885 907.316406,311.816437 C907.256226,310.962646 907.520508,310.223602 907.784790,309.484497 C908.187195,310.084045 908.589539,310.683594 908.996704,311.608215 z" transform="matrix(1, 0, 0, 1, 1.1368683772161603e-13, 0)"/>
  <path fill="#EBEDED" opacity="1.000000" stroke="none" d=" M911.038513,316.049591 C910.763489,315.761169 910.783447,315.583832 910.977173,315.202820 C911.925049,315.120178 912.699219,315.241150 913.473328,315.362122 C913.477966,315.628296 913.482605,315.894501 913.487244,316.160706 C912.769287,316.160706 912.051392,316.160706 911.038513,316.049591 z" transform="matrix(1, 0, 0, 1, 1.1368683772161603e-13, 0)"/>
  <path fill="#EBEDED" opacity="1.000000" stroke="none" d=" M896.858887,324.126465 C897.424133,323.990387 897.706421,324.137421 897.984863,324.647797 C897.572754,325.077118 897.098389,325.269836 896.624023,325.462524 C896.629944,325.069305 896.635925,324.676117 896.858887,324.126465 z" transform="matrix(1, 0, 0, 1, 1.1368683772161603e-13, 0)"/>
  <path fill="#EBEDED" opacity="1.000000" stroke="none" d=" M897.956787,369.880768 C898.309814,369.343689 899.000916,368.823944 899.847534,368.647461 C899.433655,369.293182 898.864197,369.595642 897.956787,369.880768 z" transform="matrix(1, 0, 0, 1, 1.1368683772161603e-13, 0)"/>
  <path fill="#EBEDED" opacity="1.000000" stroke="none" d=" M922.952148,364.408295 C922.557251,364.712677 922.106750,364.764587 921.324097,364.735657 C921.626770,364.488464 922.261658,364.322144 922.952148,364.408295 z" transform="matrix(1, 0, 0, 1, 1.1368683772161603e-13, 0)"/>
  <path fill="#EBEDED" opacity="1.000000" stroke="none" d=" M928.744812,363.231750 C929.390381,363.430695 929.828491,363.844818 930.372803,364.547485 C929.831787,364.373016 929.184509,363.909973 928.744812,363.231750 z" transform="matrix(1, 0, 0, 1, 1.1368683772161603e-13, 0)"/>
  <path fill="#DADBDB" opacity="1.000000" stroke="none" d=" M953.946167,371.647217 C949.692932,367.821655 946.442932,363.458984 946.820557,357.366577 C946.921204,355.743683 946.981812,353.606903 947.972473,352.641632 C951.674194,349.034790 955.754211,345.816254 960.330139,342.138367 C963.015564,341.565887 965.063232,341.307159 966.946533,341.369690 C963.057922,342.599396 960.942078,344.923950 960.174011,348.710632 C959.924500,349.940948 959.025940,351.091003 958.253296,352.153473 C956.471008,354.604126 954.896301,357.732697 957.623108,359.616180 C959.008667,360.573303 962.407715,358.615540 964.896545,357.975464 C965.904602,359.480530 966.912598,360.985596 967.552673,362.816650 C964.895203,365.056580 962.605652,366.970520 959.967041,368.878998 C957.727478,369.798096 955.836792,370.722656 953.946167,371.647217 z" transform="matrix(1, 0, 0, 1, 1.1368683772161603e-13, 0)"/>
  <path fill="#1D1E1D" opacity="1.000000" stroke="none" d=" M929.197083,325.843689 C930.962585,321.644623 932.709106,317.428223 938.249329,316.480591 C937.755432,314.102173 937.302246,311.919830 937.155396,309.338623 C940.078796,308.549744 942.887878,306.736084 945.017334,309.959198 C945.052063,310.144043 945.086853,310.328918 945.204468,311.088745 C945.353455,312.112579 945.419495,312.561523 945.485596,313.010437 C945.314209,313.433624 945.142822,313.856812 944.613953,314.805908 C942.649170,316.197784 941.041870,317.063751 938.888672,318.223816 C939.288574,319.410797 939.368042,321.804504 940.481567,322.471344 C942.387146,323.612457 944.940002,323.672455 947.221069,324.186462 C947.020081,322.814880 946.819031,321.443329 946.728027,319.772217 C946.915894,319.059875 946.993896,318.647064 947.071899,318.234253 C949.772461,317.752930 952.473022,317.271606 955.599487,317.273010 C956.079163,318.333954 956.132874,318.912140 956.186584,319.490326 C953.745972,322.080505 951.305359,324.670715 948.645996,327.858215 C945.163940,335.139923 943.279663,335.867035 938.628296,333.178070 C934.498352,330.790527 938.160400,328.134338 937.955872,324.839691 C935.779236,325.236145 933.816040,325.593719 931.409790,325.944458 C930.376831,325.906342 929.786987,325.875031 929.197083,325.843689 z" transform="matrix(1, 0, 0, 1, 1.1368683772161603e-13, 0)"/>
  <path fill="#252926" opacity="1.000000" stroke="none" d=" M964.920532,357.530762 C962.407715,358.615540 959.008667,360.573303 957.623108,359.616180 C954.896301,357.732697 956.471008,354.604126 958.253296,352.153473 C959.025940,351.091003 959.924500,349.940948 960.174011,348.710632 C960.942078,344.923950 963.057922,342.599396 967.385681,341.271179 C969.203857,340.347992 970.418701,339.844574 972.456665,339.000031 C970.376648,337.577057 969.210754,336.779449 968.044861,335.981873 C971.168274,334.085724 974.291626,332.189636 978.083435,330.053314 C979.504028,329.761536 980.256287,329.710022 981.008484,329.658508 C982.947632,331.235596 984.886780,332.812683 987.904297,335.266846 C982.483948,335.904053 978.908020,336.324432 974.651978,336.844971 C972.898010,337.436279 971.824097,337.927368 970.750122,338.418396 C971.287415,339.006195 971.824707,339.594025 972.361938,340.181885 C971.997192,341.543793 971.864746,343.966461 971.232178,344.104950 C964.183960,345.648071 964.678772,350.869812 965.004333,356.092133 C965.024841,356.420929 964.966309,356.754669 964.920532,357.530762 z" transform="matrix(1, 0, 0, 1, 1.1368683772161603e-13, 0)"/>
  <path fill="#EBEDED" opacity="1.000000" stroke="none" d=" M931.852844,325.951263 C933.816040,325.593719 935.779236,325.236145 937.955872,324.839691 C938.160400,328.134338 934.498352,330.790527 938.628296,333.178070 C943.279663,335.867035 945.163940,335.139923 948.664917,328.209747 C949.935913,331.755219 952.659729,332.520203 956.536194,331.989136 C955.198303,333.086578 953.431946,334.183990 951.665527,335.281372 C947.710388,341.152985 943.973328,343.100555 936.456482,341.272705 C934.766174,340.861694 933.499390,338.585388 932.109802,337.100311 C930.975220,335.887817 929.948120,334.574768 928.260742,333.314514 C927.196899,332.957672 926.745728,332.592590 926.294556,332.227539 C926.419739,331.547272 926.544922,330.866974 926.815247,329.850403 C927.708984,329.225128 928.457703,328.936127 929.551392,328.609131 C930.548523,327.697845 931.200684,326.824554 931.852844,325.951263 z" transform="matrix(1, 0, 0, 1, 1.1368683772161603e-13, 0)"/>
  <path fill="#C7C8C3" opacity="1.000000" stroke="none" d=" M945.107422,309.731171 C942.887878,306.736084 940.078796,308.549744 937.058472,308.925354 C936.121216,308.613983 935.587280,308.316986 934.806885,307.834778 C934.357178,306.145996 934.153931,304.642395 933.944946,303.095734 C941.605652,298.923187 947.374573,298.764252 949.949951,306.664246 C948.942871,307.667908 947.896484,308.298553 946.391479,308.759033 C945.710388,308.731750 945.487915,308.874634 945.265442,309.017517 C945.265442,309.017548 945.197449,309.503143 945.107422,309.731171 z" transform="matrix(1, 0, 0, 1, 1.1368683772161603e-13, 0)"/>
  <path fill="#EBEDED" opacity="1.000000" stroke="none" d=" M983.847839,350.052429 C986.514587,351.789734 989.181335,353.527069 991.535950,355.652557 C985.033081,356.382690 984.553467,356.940125 987.018921,361.260864 C986.659973,362.520569 986.309692,363.437561 986.061707,364.086700 C984.235596,362.223877 982.656616,360.613159 980.861816,358.739960 C978.623169,357.751556 976.600342,357.025604 974.577454,356.299652 C974.150085,355.573029 973.722717,354.846405 973.719116,353.666931 C975.964539,353.131012 977.896301,353.395874 979.575378,352.863434 C981.139343,352.367554 982.434387,351.023254 983.847839,350.052429 z" transform="matrix(1, 0, 0, 1, 1.1368683772161603e-13, 0)"/>
  <path fill="#252926" opacity="1.000000" stroke="none" d=" M974.350281,356.629028 C976.600342,357.025604 978.623169,357.751556 980.763428,359.113281 C981.571655,361.830597 982.262573,363.912109 982.921021,366.342834 C982.897766,367.391052 982.906921,368.090057 982.916138,368.789093 C978.463806,369.958374 976.579956,368.573303 976.751160,363.666138 C976.828064,361.463470 975.056091,359.196289 974.350281,356.629028 z" transform="matrix(1, 0, 0, 1, 1.1368683772161603e-13, 0)"/>
  <path fill="#274331" opacity="1.000000" stroke="none" d=" M953.934814,371.999939 C955.836792,370.722656 957.727478,369.798096 960.512939,368.918640 C962.120972,369.095947 962.834106,369.228119 963.547241,369.360321 C960.612183,372.930695 957.677124,376.501068 954.514771,380.364624 C954.166138,377.889465 954.044800,375.121063 953.934814,371.999939 z" transform="matrix(1, 0, 0, 1, 1.1368683772161603e-13, 0)"/>
  <path fill="#1D1E1D" opacity="1.000000" stroke="none" d=" M973.644470,319.260101 C977.935608,313.794830 979.018250,313.764557 983.734619,318.977966 C978.762939,325.597961 978.762939,325.597961 974.204163,321.585754 C973.840210,320.376526 973.742371,319.818329 973.644470,319.260101 z" transform="matrix(1, 0, 0, 1, 1.1368683772161603e-13, 0)"/>
  <path fill="#252926" opacity="1.000000" stroke="none" d=" M956.890686,316.546021 C957.093445,309.144135 959.863831,307.118225 969.493286,309.115173 C965.613647,312.192749 962.684570,314.516235 959.189270,316.639618 C958.045532,316.475006 957.468140,316.510529 956.890686,316.546021 z" transform="matrix(1, 0, 0, 1, 1.1368683772161603e-13, 0)"/>
  <path fill="#252926" opacity="1.000000" stroke="none" d=" M973.335327,319.536560 C973.742371,319.818329 973.840210,320.376526 973.944946,321.359985 C973.358154,322.522034 972.764526,323.258850 971.704956,324.370514 C970.486450,325.479767 969.733948,326.214172 968.981445,326.948547 C968.056091,327.729279 967.130737,328.510071 965.733276,329.532593 C964.527771,328.853729 963.794312,327.933075 963.060852,327.012451 C963.559265,320.704590 968.925232,321.134247 973.335327,319.536560 z" transform="matrix(1, 0, 0, 1, 1.1368683772161603e-13, 0)"/>
  <path fill="#252926" opacity="1.000000" stroke="none" d=" M985.903198,313.132263 C986.387207,309.765533 987.871765,307.739563 991.012878,309.261047 C992.333374,309.900726 994.028320,312.848480 993.690002,313.277374 C992.481750,314.809113 990.576599,316.004028 988.702026,316.656097 C988.197205,316.831726 986.866699,314.633667 985.903198,313.132263 z" transform="matrix(1, 0, 0, 1, 1.1368683772161603e-13, 0)"/>
  <path fill="#EBEDED" opacity="1.000000" stroke="none" d=" M946.618042,320.071747 C946.819031,321.443329 947.020081,322.814880 947.221069,324.186462 C944.940002,323.672455 942.387146,323.612457 940.481567,322.471344 C939.368042,321.804504 939.288574,319.410797 938.888672,318.223816 C941.041870,317.063751 942.649170,316.197784 944.578735,315.147522 C945.246277,315.459045 945.591492,315.954865 945.739929,316.951385 C945.901428,318.325287 946.259766,319.198517 946.618042,320.071747 z" transform="matrix(1, 0, 0, 1, 1.1368683772161603e-13, 0)"/>
  <path fill="#252926" opacity="1.000000" stroke="none" d=" M983.519043,349.891083 C982.434387,351.023254 981.139343,352.367554 979.575378,352.863434 C977.896301,353.395874 975.964539,353.131012 973.770325,353.225525 C972.274048,349.814423 973.626770,348.219391 977.096802,348.546326 C979.146912,348.739471 981.160400,349.322205 983.519043,349.891083 z" transform="matrix(1, 0, 0, 1, 1.1368683772161603e-13, 0)"/>
  <path fill="#EAEAED" opacity="1.000000" stroke="none" d=" M946.626343,405.003845 C947.639404,407.477936 948.828430,409.961975 948.783081,412.423187 C948.720032,415.837677 946.942993,418.099457 941.883728,416.200500 C946.614807,413.301483 946.076782,409.607178 944.010498,405.386810 C944.753113,405.010132 945.502319,405.006866 946.626343,405.003845 z" transform="matrix(1, 0, 0, 1, 1.1368683772161603e-13, 0)"/>
  <path fill="#EBEDED" opacity="1.000000" stroke="none" d=" M967.784302,335.981689 C969.210754,336.779449 970.376648,337.577057 972.456665,339.000031 C970.418701,339.844574 969.203857,340.347992 967.549927,340.949890 C965.063232,341.307159 963.015564,341.565887 960.593140,341.900330 C961.249329,340.108643 962.280334,338.241272 963.926514,336.183960 C965.014526,335.990784 965.487366,335.987549 965.960144,335.984283 C966.481323,335.983368 967.002502,335.982452 967.784302,335.981689 z" transform="matrix(1, 0, 0, 1, 1.1368683772161603e-13, 0)"/>
  <path fill="#1D1E1D" opacity="1.000000" stroke="none" d=" M963.917480,369.459656 C962.834106,369.228119 962.120972,369.095947 960.861938,368.924133 C962.605652,366.970520 964.895203,365.056580 967.550354,363.168274 C969.932190,367.154297 969.052795,369.464111 963.917480,369.459656 z" transform="matrix(1, 0, 0, 1, 1.1368683772161603e-13, 0)"/>
  <path fill="#252926" opacity="1.000000" stroke="none" d=" M989.956177,368.122742 C991.545471,369.504669 994.878357,370.069153 992.203979,373.653625 C990.309082,373.531677 988.618958,373.110077 986.428040,372.342102 C985.669739,371.135223 985.412231,370.274689 985.532959,369.420959 C987.259460,368.992737 988.607849,368.557739 989.956177,368.122742 z" transform="matrix(1, 0, 0, 1, 1.1368683772161603e-13, 0)"/>
  <path fill="#252926" opacity="1.000000" stroke="none" d=" M987.027527,360.918152 C984.553467,356.940125 985.033081,356.382690 991.612671,355.998871 C992.173767,357.550812 992.346069,359.144653 992.261230,360.918762 C991.249329,361.138062 990.494629,361.177032 989.053589,361.176147 C987.920654,361.063538 987.474121,360.990845 987.027527,360.918152 z" transform="matrix(1, 0, 0, 1, 1.1368683772161603e-13, 0)"/>
  <path fill="#DADBDB" opacity="1.000000" stroke="none" d=" M965.963989,335.546234 C965.487366,335.987549 965.014526,335.990784 964.187012,335.980713 C964.928711,333.075256 963.839355,330.921722 961.255005,328.908813 C961.470276,328.112488 961.968628,327.585022 962.763916,327.035034 C963.794312,327.933075 964.527771,328.853729 965.592896,329.805969 C965.938965,331.594452 965.953430,333.351318 965.963989,335.546234 z" transform="matrix(1, 0, 0, 1, 1.1368683772161603e-13, 0)"/>
  <path fill="#EBEDED" opacity="1.000000" stroke="none" d=" M969.127441,327.267944 C969.733948,326.214172 970.486450,325.479767 971.526917,324.604401 C972.393066,326.066956 972.971191,327.670502 973.549316,329.274017 C973.262390,329.594238 972.975403,329.914429 972.688477,330.234650 C971.550110,329.352203 970.411743,328.469727 969.127441,327.267944 z" transform="matrix(1, 0, 0, 1, 1.1368683772161603e-13, 0)"/>
  <path fill="#EBEDED" opacity="1.000000" stroke="none" d=" M985.154785,369.414185 C985.412231,370.274689 985.669739,371.135223 986.064270,372.244080 C983.862610,374.144714 983.862610,374.144714 982.956787,369.130768 C982.906921,368.090057 982.897766,367.391052 983.197083,366.545288 C984.055359,367.403748 984.605103,368.408966 985.154785,369.414185 z" transform="matrix(1, 0, 0, 1, 1.1368683772161603e-13, 0)"/>
  <path fill="#EBEDED" opacity="1.000000" stroke="none" d=" M972.806335,340.080048 C971.824707,339.594025 971.287415,339.006195 970.750122,338.418396 C971.824097,337.927368 972.898010,337.436279 974.313354,337.016632 C974.186768,338.051483 973.718750,339.014862 972.806335,340.080048 z" transform="matrix(1, 0, 0, 1, 1.1368683772161603e-13, 0)"/>
  <path fill="#C7C8C3" opacity="1.000000" stroke="none" d=" M947.775452,390.060150 C947.433105,390.131409 947.168335,390.019348 947.046753,389.202087 C947.703979,388.129517 948.295593,387.578796 948.887268,387.028107 C949.192871,387.184662 949.498474,387.341217 950.224365,387.795654 C950.929077,388.196716 951.050659,388.419739 950.668823,388.922913 C949.477417,389.408844 948.626404,389.734497 947.775452,390.060150 z" transform="matrix(1, 0, 0, 1, 1.1368683772161603e-13, 0)"/>
  <path fill="#EBEDED" opacity="1.000000" stroke="none" d=" M947.926575,390.310822 C948.626404,389.734497 949.477417,389.408844 950.672485,389.065460 C951.008484,389.794342 951.000305,390.540955 950.675659,391.634979 C949.943542,391.979614 949.527771,391.976837 949.112000,391.974121 C948.767212,391.503235 948.422424,391.032349 947.926575,390.310822 z" transform="matrix(1, 0, 0, 1, 1.1368683772161603e-13, 0)"/>
  <path fill="#C7C8C3" opacity="1.000000" stroke="none" d=" M946.728027,319.772217 C946.259766,319.198517 945.901428,318.325287 945.769287,317.265808 C946.292969,317.290680 946.590393,317.501831 946.979858,317.973633 C946.993896,318.647064 946.915894,319.059875 946.728027,319.772217 z" transform="matrix(1, 0, 0, 1, 1.1368683772161603e-13, 0)"/>
  <path fill="#EBEDED" opacity="1.000000" stroke="none" d=" M980.930298,329.363953 C980.256287,329.710022 979.504028,329.761536 978.373901,329.810455 C978.948059,329.561707 979.900085,329.315582 980.930298,329.363953 z" transform="matrix(1, 0, 0, 1, 1.1368683772161603e-13, 0)"/>
  <path fill="#EBEDED" opacity="1.000000" stroke="none" d=" M945.724487,312.946259 C945.419495,312.561523 945.353455,312.112579 945.356323,311.326538 C945.604614,311.620300 945.783936,312.251190 945.724487,312.946259 z" transform="matrix(1, 0, 0, 1, 1.1368683772161603e-13, 0)"/>
  <path fill="#C7C8C3" opacity="1.000000" stroke="none" d=" M956.926514,316.522522 C957.468140,316.510529 958.045532,316.475006 958.819214,316.669006 C958.674988,317.271912 958.334473,317.645325 957.617432,317.626984 C957.162598,316.965240 957.084351,316.695282 957.006104,316.425293 C957.006104,316.425293 956.962341,316.499023 956.926514,316.522522 z" transform="matrix(1, 0, 0, 1, 1.1368683772161603e-13, 0)"/>
  <path fill="#EBEDED" opacity="1.000000" stroke="none" d=" M945.546631,398.635803 C945.820007,397.964111 946.513977,397.374939 947.521057,396.642883 C947.211914,397.239410 946.589600,397.978851 945.546631,398.635803 z" transform="matrix(1, 0, 0, 1, 1.1368683772161603e-13, 0)"/>
  <path fill="#C7C8C3" opacity="1.000000" stroke="none" d=" M949.078369,392.264160 C949.527771,391.976837 949.943542,391.979614 950.669800,392.008850 C950.602112,392.372894 950.223877,392.710449 949.581543,393.059326 C949.226562,392.898499 949.135620,392.726379 949.078369,392.264160 z" transform="matrix(1, 0, 0, 1, 1.1368683772161603e-13, 0)"/>
  <path fill="#252926" opacity="1.000000" stroke="none" d=" M956.722168,316.466064 C957.084351,316.695282 957.162598,316.965240 957.353210,317.641602 C957.224365,318.412384 956.983215,318.776764 956.464294,319.315735 C956.132874,318.912140 956.079163,318.333954 956.016113,317.320435 C956.150635,316.759033 956.294434,316.632935 956.722168,316.466064 z" transform="matrix(1, 0, 0, 1, 1.1368683772161603e-13, 0)"/>
  <path fill="#EBEDED" opacity="1.000000" stroke="none" d=" M945.494507,308.991211 C945.487915,308.874634 945.710388,308.731750 946.055664,308.738831 C946.178467,308.888824 945.723572,308.964905 945.494507,308.991211 z" transform="matrix(1, 0, 0, 1, 1.1368683772161603e-13, 0)"/>
  <path fill="#EEF1F1" opacity="1.000000" stroke="none" d=" M985.532959,369.420959 C984.605103,368.408966 984.055359,367.403748 983.229614,366.196075 C982.262573,363.912109 981.571655,361.830597 980.979187,359.375763 C982.656616,360.613159 984.235596,362.223877 986.061707,364.086700 C986.309692,363.437561 986.659973,362.520569 987.018921,361.260864 C987.474121,360.990845 987.920654,361.063538 988.683105,361.262451 C989.326965,363.371307 989.654846,365.354004 989.969482,367.729706 C988.607849,368.557739 987.259460,368.992737 985.532959,369.420959 z" transform="matrix(1, 0, 0, 1, 1.1368683772161603e-13, 0)"/>
  <path fill="#EEF1F1" opacity="1.000000" stroke="none" d=" M948.877930,386.577820 C948.295593,387.578796 947.703979,388.129517 947.020508,388.975403 C945.503052,388.218536 944.077393,387.166504 942.310547,386.095215 C940.374023,383.306244 938.778564,380.536499 937.127808,377.670624 C938.263794,375.585480 939.583740,373.162567 941.028442,370.397003 C947.050659,367.195496 949.858582,368.863525 949.736511,375.373901 C949.669189,378.962585 949.171936,382.543243 948.877930,386.577820 z" transform="matrix(1, 0, 0, 1, 1.1368683772161603e-13, 0)"/>
  <path fill="#C7C8C3" opacity="1.000000" stroke="none" d=" M941.661804,357.079102 C936.517700,358.850372 932.945679,355.973175 932.429688,349.560547 C937.009888,347.065308 940.821106,350.203613 941.661804,357.079102 z" transform="matrix(1, 0, 0, 1, 1.1368683772161603e-13, 0)"/>
  <path fill="#252926" opacity="1.000000" stroke="none" d=" M930.228638,346.805145 C929.283813,345.913818 928.610107,344.816895 927.861877,343.404175 C930.285889,343.027161 933.228760,342.622650 930.228638,346.805145 z" transform="matrix(1, 0, 0, 1, 1.1368683772161603e-13, 0)"/>
  <path fill="#252926" opacity="1.000000" stroke="none" d=" M929.206360,328.647125 C928.457703,328.936127 927.708984,329.225128 926.673767,329.623657 C926.187073,329.474365 926.085938,329.180603 926.095215,328.697052 C926.713379,328.104370 927.320129,327.666595 928.469482,327.408569 C929.076782,327.941254 929.141541,328.294189 929.206360,328.647125 z" transform="matrix(1, 0, 0, 1, 1.1368683772161603e-13, 0)"/>
  <path fill="#252926" opacity="1.000000" stroke="none" d=" M926.234741,332.583557 C926.745728,332.592590 927.196899,332.957672 927.887878,333.488220 C927.476746,333.415680 926.825806,333.177612 926.234741,332.583557 z" transform="matrix(1, 0, 0, 1, 1.1368683772161603e-13, 0)"/>
  <path fill="#1F2E22" opacity="1.000000" stroke="none" d=" M929.551392,328.609131 C929.141541,328.294189 929.076782,327.941254 928.912781,327.059326 C928.696045,326.314331 928.724609,326.119781 929.048157,325.895142 C929.786987,325.875031 930.376831,325.906342 931.409790,325.944458 C931.200684,326.824554 930.548523,327.697845 929.551392,328.609131 z" transform="matrix(1, 0, 0, 1, 1.1368683772161603e-13, 0)"/>
</svg>
